<?xml version="1.0" encoding="UTF-8" standalone="no"?>
<!-- Created with Inkscape (http://www.inkscape.org/) -->
<svg
   xmlns:dc="http://purl.org/dc/elements/1.1/"
   xmlns:cc="http://creativecommons.org/ns#"
   xmlns:rdf="http://www.w3.org/1999/02/22-rdf-syntax-ns#"
   xmlns:svg="http://www.w3.org/2000/svg"
   xmlns="http://www.w3.org/2000/svg"
   xmlns:sodipodi="http://sodipodi.sourceforge.net/DTD/sodipodi-0.dtd"
   xmlns:inkscape="http://www.inkscape.org/namespaces/inkscape"
   width="322"
   height="71"
   id="svg2612"
   sodipodi:version="0.32"
   inkscape:version="0.46"
   version="1.0"
   sodipodi:docname="Communauté urbaine de Nantes.svg"
   inkscape:output_extension="org.inkscape.output.svg.inkscape">
  <defs
     id="defs2614">
    <clipPath
       clipPathUnits="userSpaceOnUse"
       id="clipPath169">
      <path
         d="M 149.31,97.083 L 149.31,34.318 L 406.449,34.318 L 406.449,97.083 L 149.31,97.083"
         id="path171" />
    </clipPath>
    <clipPath
       clipPathUnits="userSpaceOnUse"
       id="clipPath209">
      <path
         d="M 149.31,97.083 L 149.31,34.318 L 406.449,34.318 L 406.449,97.083 L 149.31,97.083"
         id="path211" />
    </clipPath>
    <inkscape:perspective
       sodipodi:type="inkscape:persp3d"
       inkscape:vp_x="0 : 526.18109 : 1"
       inkscape:vp_y="0 : 1000 : 0"
       inkscape:vp_z="744.09448 : 526.18109 : 1"
       inkscape:persp3d-origin="372.04724 : 350.78739 : 1"
       id="perspective2620" />
  </defs>
  <sodipodi:namedview
     id="base"
     pagecolor="#ffffff"
     bordercolor="#666666"
     borderopacity="1.0"
     inkscape:pageopacity="0.0"
     inkscape:pageshadow="2"
     inkscape:zoom="2.8871545"
     inkscape:cx="160.71186"
     inkscape:cy="35.34875"
     inkscape:document-units="px"
     inkscape:current-layer="layer1"
     showgrid="false"
     inkscape:window-width="1024"
     inkscape:window-height="712"
     inkscape:window-x="-4"
     inkscape:window-y="-4" />
  <metadata
     id="metadata2617">
    <rdf:RDF>
      <cc:Work
         rdf:about="">
        <dc:format>image/svg+xml</dc:format>
        <dc:type
           rdf:resource="http://purl.org/dc/dcmitype/StillImage" />
      </cc:Work>
    </rdf:RDF>
  </metadata>
  <g
     inkscape:label="Calque 1"
     inkscape:groupmode="layer"
     id="layer1"
     transform="translate(-162.14527,-374.15629)">
    <path
       d="M 168.43402,440.26629 C 168.41402,440.26004 168.39777,440.25254 168.37152,440.25254 C 168.39277,440.25254 168.41402,440.25754 168.43402,440.26629 z M 168.38277,440.61129 C 168.38402,440.60879 168.38402,440.60754 168.38527,440.60504 C 168.39902,440.60879 168.41152,440.61754 168.42652,440.61754 C 168.41652,440.61754 168.40152,440.61629 168.38277,440.61129 z M 168.31027,440.20754 L 168.31027,440.20629 C 168.31777,440.20504 168.32027,440.20004 168.32777,440.20004 C 168.32027,440.20004 168.31777,440.20629 168.31027,440.20754 z M 168.29402,440.21379 C 168.29402,440.21379 168.29402,440.21254 168.29402,440.21129 L 168.29527,440.21129 C 168.29527,440.21129 168.29402,440.21254 168.29402,440.21379 z M 167.66027,440.92629 C 167.66277,440.92629 167.66402,440.92629 167.66527,440.92629 C 167.66402,440.92629 167.66277,440.92754 167.66027,440.92629 z M 166.11902,441.88754 C 166.11902,441.88754 166.11902,441.88754 166.11902,441.88879 C 166.11652,441.88629 166.11277,441.88379 166.11152,441.88129 C 166.09777,441.85754 166.09152,441.83129 166.09152,441.80629 C 166.09152,441.83379 166.10652,441.85629 166.12152,441.87879 C 166.12027,441.88129 166.12152,441.88504 166.11902,441.88754 z M 168.56527,440.36629 L 168.56652,440.36629 C 168.59777,440.33629 168.61902,440.29504 168.61902,440.24879 C 168.61902,440.15379 168.54152,440.07629 168.44777,440.07629 C 168.38527,440.07629 168.33027,440.11504 168.30527,440.16879 C 168.29277,440.18129 168.28027,440.18879 168.26652,440.20254 C 168.25652,440.21129 168.24277,440.22504 168.23777,440.23004 C 168.25402,440.21629 168.27152,440.21754 168.28902,440.21254 C 168.28777,440.21379 168.28777,440.21504 168.28777,440.21754 C 168.26277,440.22379 168.23527,440.22754 168.21777,440.24629 C 168.18777,440.27254 168.16027,440.30379 168.13277,440.33379 C 168.09527,440.37629 168.05777,440.41879 168.02027,440.44879 C 168.00527,440.45879 167.98527,440.47379 167.96777,440.48754 C 167.94527,440.50504 167.91527,440.52879 167.90277,440.53379 C 167.90277,440.53379 167.90527,440.53379 167.90777,440.53254 C 167.85902,440.54629 167.81902,440.58504 167.80402,440.63379 C 167.80027,440.64379 167.79777,440.64754 167.79527,440.65504 C 167.78777,440.65004 167.77902,440.64629 167.77027,440.64254 C 167.76277,440.63879 167.75902,440.62879 167.75027,440.62754 C 167.74777,440.62504 167.74527,440.62754 167.74152,440.62754 C 167.68902,440.60879 167.63027,440.62379 167.57902,440.66504 C 167.52277,440.66004 167.46277,440.68254 167.43027,440.72754 C 167.40027,440.77004 167.39277,440.82504 167.41027,440.87379 C 167.41527,440.88504 167.41402,440.88504 167.41527,440.89129 C 167.41652,440.89879 167.41777,440.91004 167.41902,440.91754 C 167.39027,440.91004 167.36527,440.91004 167.34902,440.91004 C 167.30277,440.91004 167.25902,440.93004 167.22777,440.96504 C 167.21902,440.97879 167.21402,440.99254 167.20777,441.00629 C 167.15902,440.99879 167.11152,441.00629 167.07402,441.04129 C 167.00902,441.10504 166.92777,441.15129 166.84152,441.19879 C 166.78152,441.23379 166.71902,441.27129 166.65902,441.31379 C 166.64777,441.31629 166.63902,441.31379 166.62652,441.32004 C 166.61777,441.32379 166.61027,441.33129 166.60152,441.33754 C 166.60402,441.33629 166.61402,441.33129 166.63527,441.33129 C 166.62152,441.33129 166.60777,441.33879 166.59527,441.34129 C 166.59027,441.34504 166.58277,441.34754 166.57902,441.35254 C 166.58652,441.34504 166.58902,441.34379 166.59152,441.34129 C 166.55902,441.35129 166.52902,441.36754 166.50777,441.39629 C 166.47777,441.43629 166.47027,441.49004 166.48402,441.53879 L 166.48402,441.54004 C 166.42902,441.50004 166.35902,441.50629 166.30527,441.54504 C 166.31402,441.54004 166.32027,441.53129 166.33027,441.52754 C 166.29277,441.54129 166.23277,441.58254 166.18152,441.63504 C 166.14902,441.62629 166.11527,441.62629 166.07902,441.64254 C 166.03277,441.66379 166.01027,441.69504 165.99402,441.72879 C 165.95152,441.72629 165.91027,441.74379 165.87902,441.77129 L 165.84902,441.79879 C 165.80777,441.83629 165.77152,441.86754 165.74152,441.91629 C 165.75027,441.90129 165.76277,441.88754 165.77777,441.87629 C 165.75902,441.89129 165.74402,441.90504 165.73152,441.91629 C 165.71777,441.92754 165.70652,441.93879 165.69277,441.94754 C 165.65777,441.97879 165.61527,441.99879 165.50277,442.03754 C 165.32527,442.01504 165.19152,442.08004 165.08402,442.15379 C 165.09527,442.14754 165.07152,442.16254 165.07152,442.16254 C 165.03277,442.18379 164.98527,442.21254 164.97027,442.20504 C 164.92277,442.18129 164.86652,442.18254 164.82027,442.21004 C 164.71277,442.27129 164.57652,442.29004 164.44527,442.30254 C 164.36152,442.31629 164.28027,442.32129 164.19402,442.32754 C 164.11902,442.33254 164.04152,442.33879 163.96277,442.35004 C 163.62152,442.30004 163.33152,442.10754 163.16152,441.81504 C 163.05652,441.26879 163.22652,440.69629 163.70027,440.01504 C 164.65777,438.59879 165.62277,437.90879 166.64777,437.89879 C 166.70652,437.91379 166.76027,437.95879 166.82152,438.05004 C 166.82652,438.05754 166.88277,438.13129 166.88277,438.13129 C 166.87777,438.12504 166.87402,438.11879 166.87027,438.11129 C 166.92527,438.21504 167.01027,438.29629 167.10277,438.33379 C 167.16277,438.35754 167.23152,438.34379 167.27777,438.29629 C 167.44027,438.12629 167.39027,437.93754 167.35652,437.81254 L 167.35027,437.78504 C 167.33652,437.74504 167.33152,437.71504 167.33152,437.70129 C 167.33152,437.72129 167.32777,437.74004 167.32152,437.75754 C 167.39152,437.57254 167.21527,437.45629 167.13902,437.40754 C 167.13027,437.40379 167.11902,437.39379 167.10527,437.38629 C 167.07152,437.36504 166.99152,437.31254 166.97402,437.28629 C 166.94152,437.24129 166.88777,437.21379 166.83277,437.22004 C 166.75777,437.22379 166.64902,437.22004 166.53277,437.21379 C 166.39277,437.20754 166.23527,437.20004 166.07902,437.20754 C 165.71027,437.20754 165.43777,437.28754 165.24527,437.44754 C 164.98152,437.53004 164.58902,437.72629 164.35527,437.89629 C 163.83652,438.25254 163.01027,439.04379 162.80777,439.78504 C 162.60652,439.93754 162.50152,440.18379 162.42902,440.41254 C 162.38152,440.60129 162.34527,440.79629 162.31402,440.96879 C 162.29902,441.05004 162.28527,441.12629 162.27152,441.19879 C 162.20777,441.82879 162.45402,442.38254 163.02277,442.91004 C 163.36277,443.22379 163.88402,443.35379 164.42152,443.26379 C 164.54652,443.27754 164.64652,443.21254 164.71277,443.16379 C 164.72027,443.15754 164.72277,443.15754 164.72652,443.15629 C 164.73402,443.16129 164.74277,443.16879 164.74777,443.17254 C 164.81027,443.20504 164.86277,443.19629 164.89652,443.18254 C 164.95027,443.16129 164.97277,443.12629 164.98527,443.09629 C 165.04777,443.09004 165.12027,443.07129 165.20652,443.04504 C 165.27652,443.02504 165.34527,443.00004 165.40527,442.97879 C 165.45402,442.96129 165.50027,442.94504 165.53777,442.93379 C 165.54777,442.93129 165.55527,442.92629 165.56402,442.92379 C 165.71152,442.84879 165.87277,442.77754 166.04402,442.70379 C 166.20777,442.63129 166.37652,442.55754 166.54027,442.47629 C 166.81152,442.34129 167.14277,442.14504 167.36527,441.86004 C 167.81652,441.71004 168.39527,441.03379 168.59527,440.53129 C 168.61652,440.47629 168.60652,440.41504 168.57027,440.37004 C 168.56902,440.36879 168.56652,440.36754 168.56527,440.36629 z M 166.60152,441.33754 L 166.59902,441.33754 C 166.59902,441.33754 166.59402,441.34129 166.59152,441.34129 C 166.59277,441.34129 166.59402,441.34129 166.59527,441.34129 C 166.59652,441.34004 166.59902,441.33879 166.60152,441.33754"
       style="fill:#182006;fill-opacity:1;fill-rule:nonzero;stroke:none"
       id="path141" />
    <path
       d="M 182.72527,441.91629 C 182.63152,441.93504 182.53777,441.96254 182.43777,441.99379 C 182.31777,442.03379 182.19277,442.07379 182.07402,442.09129 C 181.84027,442.12629 181.69277,442.07254 181.59652,441.91629 C 180.94152,440.83379 181.86652,439.12504 182.19402,438.58254 C 182.25027,438.53879 182.31277,438.50629 182.37777,438.48254 C 182.40652,438.52379 182.44777,438.55379 182.49902,438.55504 C 182.58527,438.55879 182.67277,438.56004 182.76777,438.56129 C 183.00152,438.56254 183.24277,438.56379 183.47277,438.61379 C 183.86277,438.68129 184.11027,438.85004 184.25902,439.13629 C 184.30652,440.45004 183.83277,441.31004 182.72527,441.91629 z M 185.03777,439.33504 L 185.03777,439.18129 C 185.03777,439.17379 185.03652,439.16379 185.03652,439.15629 C 184.95777,438.64379 184.76902,438.31754 184.44277,438.12379 C 184.30027,438.04379 184.15152,437.99129 183.96902,437.93379 C 183.89152,437.91004 183.81027,437.89129 183.72402,437.87129 C 183.66277,437.85629 183.59652,437.83879 183.53152,437.82129 C 183.50277,437.78129 183.45777,437.75504 183.40652,437.75504 C 183.37152,437.75504 183.34277,437.76754 183.31652,437.78504 C 183.30402,437.78879 183.28402,437.79004 183.27402,437.79379 C 183.27277,437.79254 183.27027,437.79129 183.26902,437.79129 L 183.24777,437.77754 C 183.20527,437.75004 183.15277,437.74754 183.10652,437.76504 C 182.94652,437.82879 182.84902,437.82879 182.74652,437.82879 C 182.72527,437.82879 182.70277,437.82754 182.68027,437.82629 C 182.62902,437.82379 182.57152,437.82004 182.51027,437.83254 C 182.51902,437.83129 182.52902,437.82879 182.53902,437.82879 C 182.53027,437.82879 182.51902,437.83129 182.51027,437.83129 L 182.51027,437.78879 C 182.51027,437.72504 182.51027,437.57754 182.37277,437.52754 C 182.22902,437.48004 182.12277,437.49629 182.02402,437.58004 C 182.02402,437.57754 182.02527,437.57629 182.02652,437.57629 C 182.01027,437.58254 181.99402,437.58754 181.97402,437.60379 C 181.96527,437.60879 181.95277,437.61254 181.92902,437.60754 C 181.87402,437.59754 181.81652,437.61879 181.78027,437.66129 C 181.28152,438.25129 181.00402,438.96754 180.71902,439.77379 C 180.50027,440.63254 180.48652,441.89379 181.15402,442.67254 C 181.78777,443.40754 182.83777,442.95254 183.18277,442.80379 C 183.19152,442.80004 183.20152,442.79379 183.20902,442.78879 C 183.24152,442.76629 183.34652,442.70254 183.43652,442.64504 L 183.57902,442.55504 C 183.80152,442.44379 183.92652,442.29504 184.01902,442.16629 C 184.07652,442.07629 184.11902,441.99379 184.16027,441.91379 C 184.17277,441.88754 184.18777,441.86129 184.20152,441.83629 C 184.21652,441.83629 184.23152,441.84129 184.24777,441.83629 C 184.30027,441.82129 184.33902,441.78379 184.36402,441.72754 C 184.38902,441.67379 184.38902,441.62254 184.38902,441.57629 L 184.38902,441.47629 C 184.38902,441.47254 184.38902,441.47254 184.38902,441.46629 C 184.40527,441.46629 184.42277,441.46629 184.43902,441.46129 C 184.49527,441.43504 184.53277,441.37879 184.53277,441.31629 C 184.53277,441.31254 184.53527,441.29754 184.56902,441.25879 C 184.57527,441.25504 184.58902,441.24379 184.60402,441.23129 C 184.68402,441.16879 184.75402,441.07879 184.70152,440.93004 C 184.90027,440.69879 184.97152,440.40129 185.00277,440.18379 C 185.04152,439.91004 185.03902,439.61754 185.03777,439.33504"
       style="fill:#182006;fill-opacity:1;fill-rule:nonzero;stroke:none"
       id="path143" />
    <path
       d="M 243.27902,440.87254 C 243.26652,440.89504 243.25527,440.91754 243.25527,440.94379 C 243.25527,440.91629 243.26527,440.89379 243.27902,440.87254 z M 243.61777,440.63629 L 243.61652,440.63629 C 243.61777,440.63629 243.61777,440.63629 243.61777,440.63629 z M 245.48902,437.15754 C 245.46777,437.09129 245.40652,437.04754 245.33777,437.04754 C 245.36652,437.04754 245.38527,437.05629 245.38527,437.05629 C 245.38152,437.05504 245.37027,437.04754 245.36277,437.04379 L 245.33902,437.03004 C 245.31527,437.01629 245.28777,437.00879 245.26027,437.00879 C 245.28402,437.00879 245.29402,437.01004 245.31652,437.02004 L 245.31527,437.02004 C 245.30152,437.01254 245.27027,436.99754 245.22777,436.99754 C 245.19402,436.99629 245.15902,437.00254 245.12527,437.02379 C 245.10902,437.01754 245.09277,437.00879 245.07402,437.00879 L 245.05152,437.00879 C 244.98652,437.00879 244.92777,437.04754 244.90402,437.11004 C 244.80652,437.35754 244.71027,437.63504 244.63902,437.84879 C 244.55777,438.08504 244.48027,438.36504 244.40777,438.67879 C 244.35527,438.78254 244.31902,438.87129 244.29902,438.92879 C 244.26527,439.03379 244.24652,439.10504 244.23652,439.16379 C 244.22152,439.25379 244.20152,439.33879 244.13527,439.46004 C 244.09277,439.46379 244.05027,439.47754 244.02277,439.50879 C 243.98402,439.55379 243.97152,439.61504 243.99152,439.67004 C 244.01652,439.73754 244.00277,439.74879 243.98027,439.76879 C 243.95902,439.78629 243.93902,439.80754 243.92402,439.82629 C 243.91527,439.83379 243.90527,439.84504 243.90152,439.84879 C 243.87527,439.86879 243.85402,439.89754 243.84527,439.93129 C 243.84277,439.94129 243.84027,439.95129 243.83652,439.96254 C 243.80652,439.98004 243.77777,440.00254 243.76402,440.03629 C 243.75777,440.05129 243.73777,440.07754 243.72027,440.10129 C 243.70652,440.12004 243.69152,440.14129 243.67652,440.16504 C 243.63402,440.23754 243.60277,440.32629 243.61652,440.45254 C 243.56027,440.48754 243.53152,440.53754 243.52277,440.55754 C 243.51777,440.56629 243.51277,440.57379 243.50902,440.58129 C 243.48527,440.57879 243.46402,440.57379 243.44152,440.58379 C 243.37652,440.60379 243.33277,440.66504 243.33277,440.73254 L 243.33277,440.75129 C 243.33152,440.76379 243.33027,440.77629 243.32902,440.78629 C 243.32777,440.79754 243.32652,440.81254 243.32402,440.82254 C 243.30777,440.83504 243.29152,440.84629 243.28152,440.86504 C 243.15652,440.96504 243.04777,441.08254 242.93652,441.20879 C 242.93027,441.21504 242.75527,441.43504 242.75527,441.43504 C 242.45027,441.82129 242.13402,442.21879 241.73277,442.40254 C 241.72152,442.40879 241.71027,442.41379 241.70152,442.42254 C 241.64777,442.46379 241.59527,442.47629 241.53652,442.46379 C 241.44152,442.44004 241.34277,442.34629 241.27652,442.22129 C 241.26027,440.93004 241.46277,439.72004 241.88027,438.62754 C 241.87902,438.63379 241.87652,438.63879 241.87402,438.64379 C 242.02777,438.34754 241.94277,437.98254 241.68652,437.84754 C 241.66777,437.83754 241.64527,437.83129 241.62277,437.82879 C 241.34277,437.81254 241.04402,437.99254 241.01402,438.37129 C 240.95902,438.74004 240.86777,439.12379 240.78027,439.49504 C 240.70402,439.82129 240.62402,440.15879 240.56777,440.49504 C 240.41902,441.37254 240.45152,442.05129 240.67152,442.69754 C 240.86652,443.14004 241.26527,443.26129 241.55652,443.35004 L 241.57777,443.35629 C 241.58777,443.35879 241.59652,443.36129 241.60777,443.36129 C 242.13902,443.42004 242.53402,443.03879 242.82152,442.76129 C 243.11777,442.47504 243.36152,442.13379 243.57652,441.83254 C 243.64527,441.72004 243.71277,441.62129 243.77777,441.52629 C 243.81527,441.47504 243.85152,441.42004 243.88652,441.36754 C 243.89902,441.35129 243.91152,441.33754 243.92402,441.32254 C 243.91527,441.38629 243.90777,441.44754 243.89652,441.51629 C 243.86402,441.72629 243.83027,441.94379 243.83902,442.16629 C 243.84527,442.22629 243.84777,442.27879 243.85027,442.33379 C 243.85277,442.38879 243.85652,442.44379 243.86152,442.50004 C 243.86777,442.66629 243.88902,443.20129 244.26152,443.40629 C 244.27777,443.41504 244.29402,443.42004 244.31152,443.42379 C 244.47027,443.45004 244.68527,443.44629 244.74652,443.12129 C 244.74902,443.10504 244.74902,443.09004 244.74777,443.07129 C 244.66527,442.45129 244.68527,441.77129 244.81277,440.93004 C 244.87777,440.51004 244.96027,440.09754 245.04027,439.69629 C 245.09777,439.41379 245.15152,439.14629 245.19777,438.88379 C 245.21777,438.74629 245.24902,438.61504 245.29152,438.48254 C 245.31402,438.41379 245.34027,438.34129 245.36527,438.27129 C 245.48652,437.94504 245.62152,437.57379 245.48902,437.15754"
       style="fill:#182006;fill-opacity:1;fill-rule:nonzero;stroke:none"
       id="path145" />
    <path
       d="M 265.23152,439.60629 C 265.24277,439.61879 265.24402,439.63754 265.24402,439.65379 C 265.23777,439.63754 265.24152,439.61879 265.23152,439.60629 z M 265.19652,439.83254 C 265.21527,439.82004 265.22027,439.79629 265.23152,439.77754 C 265.23027,439.79004 265.22152,439.81629 265.19652,439.83254 z M 260.28402,443.32629 C 260.30027,443.35004 260.30902,443.37504 260.30902,443.39004 C 260.30902,443.36504 260.29402,443.34629 260.28402,443.32629 z M 264.84527,438.16129 C 264.83902,438.17379 264.83777,438.18754 264.83402,438.20254 C 264.83402,438.19129 264.83777,438.17629 264.84527,438.16129 z M 265.45277,437.35879 C 265.42902,437.32504 265.40152,437.29629 265.36277,437.28254 C 265.33027,437.26879 265.30027,437.26879 265.27152,437.27129 C 265.24027,437.25254 265.20402,437.24129 265.16527,437.24879 C 265.02402,437.27379 264.97527,437.28254 264.93402,437.34879 C 264.92027,437.37004 264.91402,437.39629 264.91027,437.42504 C 264.90277,437.43254 264.88902,437.44754 264.86402,437.46754 C 264.83652,437.49004 264.81777,437.51879 264.80902,437.55254 C 264.77652,437.68629 264.79652,437.81629 264.86277,437.94004 C 264.85902,437.95754 264.85777,437.97754 264.85652,437.99629 C 264.85277,437.99754 264.84777,437.99754 264.84402,438.00129 C 264.82777,438.01629 264.75277,438.09754 264.82902,438.21879 C 264.82902,438.22004 264.82652,438.22254 264.82652,438.22629 C 264.82402,438.27129 264.79027,438.40254 264.76527,438.49754 C 264.72402,438.65754 264.70152,438.76254 264.71527,438.83504 C 264.60277,439.15254 264.54027,439.43254 264.48402,439.70004 C 264.42777,439.95879 264.37152,440.22879 264.26402,440.54504 C 264.26152,440.55129 264.26027,440.55754 264.25902,440.56379 C 264.20652,440.83004 264.14902,441.05254 264.11152,441.20004 C 264.08402,441.30879 264.07402,441.35129 264.07027,441.38004 C 264.03777,441.48129 264.02277,441.59004 264.00777,441.69379 C 263.98902,441.83629 263.96902,441.94379 263.93277,442.01004 C 263.32027,441.48129 262.87652,440.85754 262.41527,440.19629 C 262.06777,439.69629 261.70652,439.18254 261.26152,438.70504 C 261.30652,438.43379 261.24652,438.11629 261.10402,437.95754 C 261.10152,437.95254 261.09527,437.94879 261.09152,437.94379 C 260.96402,437.83254 260.84652,437.82504 260.76902,437.84004 C 260.66902,437.85879 260.57902,437.92254 260.49652,438.02879 C 260.49152,438.02379 260.48527,438.02004 260.47902,438.01629 C 260.27902,437.85254 260.05152,437.66754 259.74402,437.66754 C 259.72277,437.66754 259.70402,437.67129 259.68527,437.67879 C 259.51277,437.74879 259.45527,437.82879 259.38277,437.93254 C 259.37027,437.95129 259.35652,437.97129 259.34152,437.99254 C 259.31402,438.03129 259.30402,438.07879 259.31527,438.12504 C 259.32777,438.17129 259.35902,438.21004 259.40027,438.22879 C 259.44527,438.25004 259.45527,438.26879 259.48277,438.31629 C 259.52152,438.38629 259.58027,438.48879 259.74527,438.54629 C 259.76527,438.55379 259.78652,438.55629 259.80777,438.55504 C 259.87527,438.55129 260.02277,438.59629 260.26402,438.90379 C 259.92152,440.17254 259.57527,441.65379 259.54152,443.12629 C 259.54152,443.11129 259.54277,443.09879 259.54652,443.08629 C 259.50652,443.22879 259.62902,443.31629 259.68027,443.35254 C 259.69777,443.36504 259.72652,443.38504 259.73402,443.39379 C 259.73277,443.39379 259.73027,443.38754 259.72902,443.38004 C 259.73652,443.46129 259.80527,443.52379 259.88652,443.52379 C 259.95652,443.52379 259.99777,443.53004 260.05652,443.53754 L 260.05902,443.53879 C 260.07652,443.55004 260.09402,443.56129 260.10277,443.56504 C 260.21652,443.60629 260.29152,443.51504 260.32027,443.48129 C 260.32652,443.47379 260.33652,443.46129 260.34027,443.45754 C 260.34027,443.45754 260.33652,443.46129 260.32902,443.46629 C 260.37652,443.43754 260.40777,443.38629 260.40777,443.33254 C 260.42902,442.03004 260.74652,440.75004 261.05152,439.72629 C 261.31652,440.05504 261.57277,440.40879 261.81777,440.76004 C 262.39027,441.58004 262.98277,442.42754 263.80027,442.95254 C 263.80652,442.95629 263.81277,442.96004 263.81902,442.96379 C 264.10027,443.09379 264.24152,443.04129 264.41152,442.95129 C 264.45777,442.92754 264.50402,442.90379 264.56277,442.88254 C 264.60527,442.86879 264.64027,442.83504 264.65777,442.79379 C 264.92902,442.13504 265.01402,441.42254 265.09652,440.73254 C 265.12777,440.47129 265.15652,440.22504 265.19527,439.98879 C 265.19652,439.98254 265.19402,439.97629 265.19402,439.97129 C 265.24277,439.90629 265.23777,439.83254 265.23402,439.79379 C 265.23402,439.78754 265.23277,439.77879 265.23277,439.77504 C 265.24277,439.75754 265.26027,439.74629 265.26277,439.72754 C 265.26652,439.70629 265.25277,439.68754 265.24777,439.66879 C 265.25152,439.66254 265.25652,439.65754 265.26027,439.65254 C 265.28527,439.62004 265.35277,439.53754 265.30527,439.43629 C 265.30027,439.42629 265.29027,439.42254 265.28402,439.41379 C 265.36902,438.97129 265.45652,438.71504 265.58277,438.35379 C 265.58277,438.35379 265.59652,438.31254 265.59527,438.31379 C 265.78152,437.80754 265.62402,437.51504 265.45277,437.35879"
       style="fill:#182006;fill-opacity:1;fill-rule:nonzero;stroke:none"
       id="path147" />
    <path
       d="M 281.12402,439.99379 C 280.74152,440.06254 280.34527,440.16879 279.96652,440.30879 C 280.31902,439.75504 280.68152,439.19879 281.08402,438.59004 C 281.09402,438.79629 281.09777,439.00379 281.09777,439.21004 C 281.09777,439.47254 281.10277,439.73879 281.12402,439.99379 z M 282.61027,442.87629 C 282.55902,442.69379 282.46027,442.60879 282.37402,442.53254 C 282.34652,442.50879 282.32027,442.48379 282.29527,442.45879 C 282.06152,441.93754 282.00152,441.34129 281.95902,440.67379 C 281.96777,440.67129 281.98152,440.66879 282.00277,440.66379 C 282.04277,440.65504 282.08152,440.64879 282.12402,440.64129 C 282.30402,440.61004 282.52777,440.57004 282.54777,440.37629 C 282.54527,440.40129 282.53527,440.42879 282.52027,440.45004 C 282.55152,440.40504 282.65027,440.26754 282.58902,440.13004 C 282.53652,440.01254 282.41777,439.98254 282.32027,439.97004 C 282.31902,439.96879 282.31777,439.96504 282.31652,439.96504 C 282.23777,439.85879 282.10527,439.88254 281.98527,439.90504 C 281.98027,439.90629 281.97402,439.90754 281.96652,439.90879 L 281.94277,439.58254 C 281.90527,439.07129 281.86527,438.53879 281.85777,438.03254 C 281.85777,438.02004 281.85527,438.00754 281.85152,437.99379 C 281.82652,437.90254 281.80527,437.80504 281.78527,437.71129 C 281.74277,437.51629 281.70027,437.31379 281.61277,437.12629 C 281.53652,436.95379 281.36027,436.76254 281.15277,436.75379 C 281.02027,436.75004 280.90402,436.82254 280.83277,436.95629 C 280.82027,436.97879 280.81402,437.00504 280.81402,437.03004 C 280.81402,437.03754 280.81152,437.05254 280.81027,437.06629 C 280.80402,437.10754 280.79152,437.20254 280.84902,437.27754 C 280.86402,437.32004 280.87902,437.36129 280.90277,437.41504 C 280.91152,437.43129 280.92152,437.45504 280.93277,437.47879 C 280.88402,437.47379 280.83402,437.48379 280.80152,437.52129 C 280.28027,438.09629 279.85527,438.80129 279.48277,439.42629 C 279.22152,439.86004 278.97527,440.27129 278.72902,440.58629 C 278.69652,440.62754 278.69402,440.67879 278.70777,440.72629 C 278.63152,440.75754 278.52527,440.82379 278.49152,440.98129 C 277.86277,441.74754 277.49527,442.39879 277.36902,442.97129 C 277.36402,442.99129 277.36402,443.01254 277.36777,443.03379 C 277.41777,443.31129 277.65527,443.50754 277.89777,443.47379 C 277.94402,443.46629 277.98402,443.44004 278.00902,443.40129 C 278.15902,443.16379 278.32277,442.88504 278.47777,442.61629 C 278.64277,442.33629 278.79652,442.07254 278.93777,441.85004 C 279.68527,441.29004 280.26777,441.11879 281.06652,440.92254 C 281.10027,440.91254 281.14902,440.89879 281.19652,440.88754 C 281.20402,441.05504 281.22277,441.21504 281.24527,441.37004 C 281.25777,441.45129 281.26902,441.53129 281.27902,441.60879 C 281.28027,441.61879 281.28152,441.62629 281.28402,441.63504 C 281.32027,441.75379 281.35027,441.89129 281.38152,442.03504 C 281.50277,442.58879 281.65277,443.27754 282.28152,443.32504 C 282.34277,443.33004 282.39402,443.29504 282.42527,443.24254 C 282.47902,443.22504 282.53652,443.19629 282.57777,443.13379 C 282.62402,443.06504 282.63527,442.98004 282.61027,442.87629"
       style="fill:#182006;fill-opacity:1;fill-rule:nonzero;stroke:none"
       id="path149" />
    <path
       d="M 304.53027,440.87254 C 304.52027,440.89504 304.50777,440.91754 304.50777,440.94379 C 304.50777,440.91629 304.51652,440.89379 304.53027,440.87254 z M 304.86902,440.63629 L 304.86902,440.63629 z M 306.47152,437.10754 L 306.47027,437.10629 C 306.47027,437.10754 306.47152,437.10629 306.47152,437.10754 z M 306.73902,437.15754 C 306.71777,437.09129 306.65652,437.04754 306.58777,437.04754 C 306.61777,437.04754 306.63527,437.05629 306.63652,437.05629 C 306.63277,437.05504 306.62402,437.04879 306.61777,437.04504 C 306.61527,437.04379 306.59277,437.03004 306.59277,437.03004 C 306.56777,437.01629 306.54027,437.00879 306.51152,437.00879 C 306.53527,437.00879 306.54402,437.01004 306.56652,437.02004 L 306.56402,437.01879 C 306.55152,437.01254 306.52027,436.99754 306.47777,436.99754 C 306.43777,436.99504 306.40277,437.00629 306.37402,437.02504 C 306.35652,437.01754 306.34152,437.00879 306.32402,437.00879 L 306.30277,437.00879 C 306.23652,437.00879 306.17777,437.04879 306.15402,437.11004 C 306.07527,437.31379 305.98902,437.55504 305.88902,437.84879 C 305.81027,438.08004 305.73652,438.34379 305.65652,438.68004 C 305.60527,438.77629 305.57152,438.86504 305.54777,438.92879 C 305.54527,438.93879 305.53777,438.96254 305.53777,438.96254 C 305.51777,439.03254 305.49777,439.10254 305.48652,439.16629 C 305.47152,439.25379 305.45277,439.33879 305.38527,439.46004 C 305.34277,439.46379 305.29902,439.47754 305.27027,439.51129 C 305.23277,439.55504 305.22152,439.61504 305.24152,439.67004 C 305.26652,439.73754 305.25152,439.75129 305.23027,439.77004 C 305.21027,439.78504 305.19027,439.80629 305.17527,439.82379 C 305.16652,439.83254 305.15777,439.84379 305.15277,439.84754 C 305.12277,439.86879 305.10277,439.90004 305.09277,439.93754 C 305.09152,439.94629 305.09027,439.95504 305.08777,439.96254 C 305.05652,439.97879 305.02902,440.00254 305.01527,440.03504 C 305.00777,440.05004 304.98777,440.07629 304.97152,440.09879 C 304.95652,440.12004 304.94152,440.14129 304.92652,440.16504 C 304.88402,440.23754 304.85277,440.32879 304.86652,440.45254 C 304.81027,440.48629 304.78152,440.53754 304.77277,440.55754 C 304.76777,440.56629 304.76402,440.57254 304.75902,440.58129 C 304.73527,440.57754 304.71152,440.57629 304.68777,440.58379 C 304.62527,440.60629 304.58277,440.66629 304.58277,440.73254 L 304.58277,440.75254 C 304.58152,440.76379 304.58027,440.77504 304.58027,440.78629 C 304.57902,440.79754 304.57652,440.81254 304.57527,440.82379 C 304.55902,440.83754 304.54402,440.84629 304.53402,440.86504 C 304.41152,440.96129 304.30777,441.07254 304.20027,441.19379 L 304.18527,441.21004 C 304.17902,441.21504 304.00902,441.43004 304.00902,441.43004 C 303.70402,441.81754 303.38777,442.21754 302.98402,442.40254 C 302.97152,442.40879 302.96152,442.41379 302.95152,442.42254 C 302.89777,442.46379 302.84527,442.47629 302.78652,442.46254 C 302.69152,442.44004 302.59277,442.34629 302.52902,442.22254 C 302.51152,440.93004 302.71277,439.72004 303.13152,438.62754 C 303.12902,438.63379 303.12652,438.63879 303.12402,438.64379 C 303.27902,438.34754 303.19402,437.98254 302.93652,437.84754 C 302.91652,437.83754 302.89527,437.83129 302.87402,437.82879 C 302.59277,437.81254 302.29402,437.99254 302.26527,438.37129 C 302.20777,438.74254 302.11777,439.12629 302.02902,439.50004 C 301.95277,439.82504 301.87277,440.16254 301.81527,440.49379 C 301.66902,441.37254 301.70152,442.05254 301.92152,442.69754 C 302.11527,443.13879 302.51402,443.26004 302.80527,443.34879 L 302.82777,443.35629 C 302.83777,443.35879 302.84652,443.36129 302.85652,443.36129 C 303.38902,443.42004 303.78277,443.03879 304.07152,442.76129 C 304.36902,442.47504 304.61277,442.13379 304.82777,441.83254 C 304.89777,441.71629 304.96902,441.61379 305.03652,441.51379 L 305.13777,441.36754 C 305.15027,441.35254 305.16277,441.33629 305.17652,441.32129 C 305.16652,441.38629 305.15902,441.45129 305.14902,441.51629 C 305.11652,441.72504 305.08152,441.94254 305.08777,442.16629 C 305.09652,442.23379 305.09902,442.29129 305.10277,442.35379 C 305.10402,442.40004 305.10652,442.44879 305.11027,442.49879 C 305.11777,442.66754 305.14027,443.20379 305.51277,443.40629 C 305.52777,443.41504 305.54527,443.42004 305.56277,443.42379 C 305.71902,443.45004 305.93277,443.44629 305.99652,443.12254 C 306.00027,443.10629 306.00152,443.09004 305.99902,443.07129 C 305.91402,442.45504 305.93527,441.77379 306.06402,440.93254 C 306.12652,440.51629 306.20777,440.11004 306.28777,439.71504 C 306.34652,439.42629 306.40152,439.15129 306.44652,438.88379 C 306.46777,438.74254 306.49777,438.61379 306.54027,438.48254 C 306.56277,438.41504 306.58902,438.34379 306.61527,438.27379 C 306.73527,437.94629 306.87277,437.57379 306.73902,437.15754"
       style="fill:#182006;fill-opacity:1;fill-rule:nonzero;stroke:none"
       id="path151" />
    <path
       d="M 325.84027,436.91129 C 325.83027,436.87379 325.80652,436.84129 325.77527,436.81629 C 325.76277,436.79379 325.74777,436.77504 325.73277,436.76379 C 325.73027,436.76129 325.65777,436.70629 325.57527,436.74254 C 325.55527,436.72504 325.53152,436.70629 325.50402,436.70129 C 325.42902,436.68879 325.35277,436.73254 325.32777,436.80504 C 325.20527,437.15254 324.83902,437.27379 324.49902,437.35754 C 324.38402,437.35504 324.27777,437.35504 324.17277,437.35754 C 323.77527,437.36254 323.46027,437.36629 323.04277,437.19629 C 323.02027,437.18629 322.99527,437.18129 322.96902,437.18379 C 322.64152,437.21254 322.31402,437.19879 321.96652,437.18629 C 321.73527,437.17504 321.49652,437.16754 321.25777,437.17129 C 320.88527,437.13629 320.24152,437.23129 319.97277,437.54879 C 319.94027,437.58504 319.93652,437.63004 319.94152,437.67254 C 319.93527,437.68129 319.92902,437.69004 319.92277,437.69754 C 319.87152,437.75254 319.79402,437.83379 319.80402,437.95379 C 319.81152,438.03254 319.85402,438.10129 319.93152,438.16129 C 319.98652,438.20379 320.06152,438.20629 320.11902,438.16629 C 320.66277,437.78379 321.27277,437.89129 321.91652,438.00379 C 322.05527,438.02879 322.19902,438.05004 322.34027,438.06879 C 321.83152,439.83504 321.46277,441.44129 321.88402,443.07129 C 321.90277,443.14129 321.96527,443.19129 322.03777,443.19129 C 322.01152,443.19129 321.99527,443.18254 321.99402,443.18254 C 321.99902,443.18504 322.01527,443.19379 322.02652,443.20004 C 322.11652,443.25004 322.32777,443.36504 322.50652,443.23254 C 322.54402,443.20379 322.56777,443.16129 322.57027,443.11379 C 322.58027,442.91879 322.55652,442.70754 322.53027,442.48254 C 322.50402,442.24629 322.47527,442.00254 322.49277,441.78754 C 322.60902,440.33379 322.87652,439.13254 323.30527,438.11629 C 323.40902,438.13004 323.50527,438.14629 323.58652,438.16379 C 323.88277,438.22004 324.10277,438.25754 324.48152,438.13379 C 324.77152,438.21129 325.17652,438.09129 325.39527,437.98004 C 325.75527,437.79254 325.95777,437.29629 325.84027,436.91129 z M 325.83652,436.89504 C 325.83777,436.90004 325.83777,436.90629 325.84027,436.91129 L 325.84152,436.91379 C 325.84027,436.90754 325.83777,436.90129 325.83652,436.89504"
       style="fill:#182006;fill-opacity:1;fill-rule:nonzero;stroke:none"
       id="path153" />
    <path
       d="M 343.53902,441.37504 L 343.53777,441.37504 C 343.55027,441.36754 343.56652,441.36004 343.58777,441.35879 C 343.56902,441.36379 343.55277,441.36629 343.53902,441.37504 z M 343.70152,441.36629 C 343.69902,441.35504 343.69902,441.34629 343.69527,441.33379 C 343.68652,441.30629 343.67027,441.28129 343.65027,441.26254 L 343.63777,441.25004 C 343.58152,441.19879 343.49902,441.19379 343.43652,441.23754 C 343.31027,441.33004 343.19777,441.38754 343.08777,441.44254 L 343.05152,441.46129 C 342.94152,441.53129 342.83527,441.60379 342.72652,441.71379 C 342.72402,441.71379 342.72027,441.71379 342.71902,441.71504 C 342.71527,441.71629 342.71027,441.71629 342.70652,441.71754 C 342.68402,441.71879 342.64902,441.72629 342.62902,441.73629 C 342.62902,441.73629 342.62777,441.73879 342.62527,441.74004 C 342.61402,441.74379 342.59902,441.75004 342.58277,441.76254 C 342.55777,441.77379 342.53152,441.79129 342.51527,441.81754 C 342.50027,441.83754 342.49152,441.86004 342.48777,441.88004 C 342.39777,441.92129 342.30777,441.96629 342.21277,442.01754 C 342.08402,442.08504 341.95152,442.15504 341.81902,442.21629 C 341.47402,442.38129 341.19902,442.46504 340.97652,442.47504 C 340.71402,442.49254 340.47902,442.33754 340.34527,442.05379 C 340.21277,441.77629 340.24902,441.22004 340.36402,440.83879 C 340.72527,440.82754 341.01652,440.80004 341.32027,440.77004 C 341.56902,440.74504 341.82902,440.71879 342.14277,440.70254 C 342.17902,440.70254 342.20902,440.69004 342.23277,440.67754 C 342.26652,440.69379 342.30777,440.69754 342.34402,440.68629 C 342.42277,440.66254 342.47277,440.65504 342.51527,440.65004 C 342.54027,440.64629 342.56527,440.64379 342.59027,440.63629 C 342.60152,440.63379 342.61402,440.62879 342.62777,440.62254 C 342.68777,440.59129 342.74652,440.55504 342.86902,440.41754 C 342.87902,440.40754 342.88652,440.39379 342.89277,440.38379 C 343.00027,440.17254 342.96277,440.05629 342.85652,439.91629 C 342.83527,439.89004 342.82402,439.87504 342.80902,439.85629 C 342.79652,439.83754 342.77902,439.81754 342.75902,439.79629 C 342.73527,439.76754 342.70027,439.74754 342.66277,439.74379 C 342.32277,439.69629 341.98527,439.73379 341.65777,439.76754 L 341.53777,439.77879 C 341.53277,439.78004 341.38402,439.80129 341.38402,439.80129 C 341.14027,439.83504 340.89152,439.86254 340.64027,439.87129 C 340.81277,439.39254 341.00777,438.88379 341.24777,438.43379 C 341.47027,438.42004 341.70527,438.38629 341.93527,438.34879 C 342.08402,438.32504 342.23777,438.29879 342.38652,438.28129 C 342.81402,438.21629 343.15652,438.23379 343.40527,438.33379 C 343.45527,438.35254 343.51027,438.34754 343.55402,438.31754 C 343.59527,438.29129 343.61652,438.24629 343.62027,438.20004 C 343.62402,438.19629 343.62777,438.19504 343.63152,438.19254 C 343.78277,438.10879 343.82402,437.99754 343.76777,437.85629 C 343.75402,437.77129 343.72527,437.70629 343.67152,437.64629 C 343.64777,437.61879 343.61652,437.58379 343.60152,437.54629 C 343.58402,437.49629 343.54277,437.46004 343.49152,437.44754 C 342.84902,437.29004 342.17027,437.37254 341.52902,437.47129 C 341.53152,437.47129 341.25152,437.51379 341.25152,437.51379 C 340.71402,437.59629 340.15527,437.68254 339.63777,437.69254 C 339.59152,437.69379 339.55152,437.71379 339.52277,437.74629 C 339.51652,437.75254 339.50902,437.75754 339.49652,437.76754 C 339.48902,437.77254 339.47777,437.78379 339.47027,437.79129 C 339.44527,437.80129 339.42152,437.81129 339.39527,437.82629 C 339.39277,437.82879 339.38652,437.83254 339.38277,437.83629 C 339.30777,437.89379 339.26152,437.96754 339.22527,438.09129 C 339.21777,438.11879 339.21527,438.14504 339.22152,438.17254 C 339.30527,438.53129 339.60277,438.57129 339.76277,438.59129 C 339.87527,438.59879 339.97527,438.59379 340.07277,438.59004 C 340.11652,438.58754 340.15527,438.59129 340.19777,438.59129 C 340.15027,438.75129 340.09277,438.90254 340.04527,439.02129 C 340.04152,439.02879 339.99902,439.14379 339.99902,439.14379 C 339.94402,439.29629 339.88652,439.45379 339.85902,439.62504 C 339.85652,439.63754 339.85527,439.65254 339.85652,439.66504 C 339.87902,439.91754 339.80902,439.93879 339.68527,439.96504 C 339.64277,439.96629 339.59902,439.96879 339.54402,439.98254 C 339.55152,439.98129 339.56152,439.97879 339.56777,439.97879 C 339.48402,439.98754 339.25402,440.01254 339.21027,440.29879 C 339.17152,440.50004 339.28527,440.62879 339.34652,440.69879 C 339.35152,440.70504 339.35652,440.71129 339.36277,440.71754 C 339.42652,440.77004 339.49152,440.78879 339.53402,440.80254 C 339.40652,441.34629 339.44652,442.02254 339.65027,442.49629 C 339.91652,443.15629 340.51527,443.30504 341.00777,443.36129 C 341.01902,443.36379 341.03027,443.36379 341.03902,443.36379 C 341.43902,443.32879 341.74152,443.23879 341.94152,443.09754 C 342.02902,443.03504 342.07402,443.00754 342.14027,443.01504 C 342.17777,443.01754 342.21402,443.01004 342.24277,442.99129 C 342.33527,442.93129 342.42902,442.87254 342.52027,442.81629 C 342.74027,442.68254 342.96527,442.54379 343.18027,442.37254 C 343.42027,442.17254 343.67777,441.91879 343.78402,441.54504 C 343.80277,441.48004 343.77652,441.41004 343.71902,441.37129 C 343.71402,441.36754 343.70652,441.36754 343.70152,441.36629 z M 341.11777,436.35504 C 341.12902,436.36254 341.13652,436.37504 341.14527,436.38754 C 341.13402,436.37254 341.12277,436.36129 341.11027,436.35129 C 341.11277,436.35254 341.11527,436.35254 341.11777,436.35504 z M 341.17152,436.43004 L 341.16902,436.43004 C 341.16777,436.42254 341.16777,436.41504 341.16402,436.40754 C 341.16777,436.41504 341.16902,436.42129 341.17152,436.43004 z M 340.92277,436.97004 C 340.95277,436.98504 340.98402,436.99379 341.01652,436.98879 C 341.74902,436.88129 342.54402,436.56754 343.04402,436.18754 C 343.18152,436.07504 343.28027,435.92129 343.35277,435.71629 C 343.36152,435.68629 343.36277,435.65504 343.35402,435.62504 C 343.35277,435.61379 343.34902,435.60004 343.34527,435.58504 C 343.32152,435.48129 343.28652,435.34129 343.16652,435.27129 C 343.11902,435.24629 343.04152,435.22004 342.93527,435.25129 C 342.91527,435.25879 342.89527,435.27004 342.87652,435.28504 C 342.19527,435.88504 341.28902,436.21879 340.98152,436.33129 C 340.93027,436.34629 340.87527,436.37879 340.80027,436.42379 C 340.73277,436.46629 340.70652,436.55129 340.73777,436.62379 C 340.74277,436.63754 340.74527,436.64129 340.74527,436.64379 C 340.74277,436.64879 340.74027,436.65379 340.73777,436.66004 C 340.73027,436.67629 340.72652,436.69254 340.72527,436.71129 C 340.72152,436.77129 340.71527,436.86129 340.78402,436.92504 C 340.83652,436.97504 340.89402,436.97254 340.92277,436.97004"
       style="fill:#182006;fill-opacity:1;fill-rule:nonzero;stroke:none"
       id="path155" />
    <path
       d="M 378.43777,440.87254 C 378.42652,440.89504 378.41652,440.91754 378.41652,440.94379 C 378.41652,440.91629 378.42527,440.89379 378.43777,440.87254 z M 380.64777,437.15754 C 380.62652,437.09129 380.56652,437.04754 380.49777,437.04754 C 380.52527,437.04754 380.54402,437.05504 380.54402,437.05629 C 380.54027,437.05504 380.53277,437.04879 380.52777,437.04504 C 380.52527,437.04504 380.50402,437.03254 380.50402,437.03254 C 380.48027,437.01754 380.45027,437.00879 380.41902,437.00879 C 380.44527,437.00879 380.45652,437.01004 380.47777,437.02129 L 380.47652,437.02129 C 380.46402,437.01379 380.43152,436.99754 380.38777,436.99754 C 380.35277,436.99629 380.31902,437.00254 380.28277,437.02379 C 380.26652,437.01754 380.25152,437.00879 380.23402,437.00879 L 380.21152,437.00879 C 380.14777,437.00879 380.08902,437.04754 380.06652,437.11004 C 379.98277,437.32129 379.89277,437.57004 379.79902,437.84879 C 379.71777,438.08504 379.64277,438.35754 379.56777,438.67879 C 379.51777,438.77254 379.48277,438.85754 379.45652,438.92879 C 379.42527,439.03504 379.40527,439.10504 379.39652,439.16004 C 379.38152,439.25004 379.36402,439.33504 379.29527,439.46004 C 379.25152,439.46379 379.21152,439.47754 379.18402,439.50754 C 379.14277,439.55129 379.13027,439.61379 379.15027,439.67004 C 379.17652,439.73754 379.16402,439.74754 379.14152,439.76629 C 379.11777,439.78629 379.09777,439.80879 379.08027,439.82629 C 379.07527,439.83504 379.06652,439.84504 379.06277,439.84754 C 379.03527,439.86879 379.01527,439.89754 379.00402,439.93004 C 379.00152,439.94129 378.99777,439.95129 378.99652,439.96379 C 378.96527,439.98004 378.93902,440.00254 378.92402,440.03379 C 378.91777,440.05004 378.89777,440.07629 378.87902,440.10254 C 378.86652,440.12129 378.85152,440.14129 378.83652,440.16254 C 378.79402,440.23504 378.76277,440.32504 378.77402,440.44754 C 378.74152,440.46629 378.70777,440.49879 378.68277,440.55254 C 378.67652,440.56379 378.67152,440.57254 378.66527,440.58129 C 378.64402,440.57754 378.62027,440.57629 378.59777,440.58379 C 378.53527,440.60629 378.49277,440.66629 378.49277,440.73254 L 378.49277,440.75004 C 378.49152,440.76254 378.48902,440.77504 378.48902,440.78629 C 378.48777,440.79754 378.48527,440.81254 378.48402,440.82254 C 378.46777,440.83504 378.45277,440.84629 378.44152,440.86504 C 378.31527,440.96504 378.20652,441.08254 378.09652,441.20629 C 378.08777,441.21504 377.92027,441.42629 377.92027,441.42629 C 377.61527,441.81379 377.29777,442.21629 376.89402,442.40254 C 376.88277,442.40879 376.87152,442.41379 376.86277,442.42254 C 376.80902,442.46379 376.75402,442.47629 376.69527,442.46379 C 376.60027,442.44004 376.50277,442.34629 376.43652,442.22129 C 376.41902,440.93004 376.62277,439.72004 377.04277,438.62754 C 377.04152,438.63379 377.03777,438.63879 377.03527,438.64379 C 377.18777,438.34504 377.10152,437.98129 376.84402,437.84754 C 376.82527,437.83754 376.80402,437.83129 376.78152,437.82879 C 376.50277,437.81254 376.20402,437.99254 376.17402,438.37129 C 376.11777,438.74004 376.02777,439.12504 375.93902,439.49504 C 375.86152,439.82379 375.78277,440.16129 375.72652,440.49379 C 375.57777,441.37129 375.61027,442.05004 375.82902,442.69754 C 376.02527,443.14004 376.42402,443.26129 376.71402,443.34879 L 376.73652,443.35629 C 376.74527,443.35879 376.75402,443.36129 376.76527,443.36129 C 377.29777,443.42004 377.69277,443.03879 377.98027,442.76129 C 378.28527,442.46754 378.53527,442.11504 378.73527,441.83254 C 378.80027,441.72504 378.86652,441.63004 378.93027,441.53879 C 378.96652,441.48254 379.00902,441.42379 379.04652,441.36754 C 379.05902,441.35129 379.07152,441.33629 379.08277,441.32129 C 379.07652,441.38254 379.06777,441.44254 379.05902,441.50754 C 379.02527,441.72004 378.99027,441.94129 378.99777,442.16629 C 379.00402,442.22254 379.00777,442.27379 379.00902,442.32754 C 379.01152,442.38254 379.01527,442.44004 379.02027,442.50004 C 379.03277,442.79629 379.08777,443.22504 379.41902,443.40629 C 379.43527,443.41504 379.45277,443.42129 379.47027,443.42379 C 379.62777,443.45004 379.84652,443.44629 379.90527,443.12129 C 379.90902,443.10504 379.90902,443.08754 379.90652,443.07129 C 379.82402,442.44879 379.84527,441.76879 379.97277,440.93254 C 380.03527,440.52129 380.11652,440.11629 380.19402,439.72754 C 380.25152,439.43379 380.30902,439.15379 380.35527,438.88129 C 380.37652,438.74254 380.40777,438.61129 380.45027,438.48254 C 380.47277,438.41754 380.49777,438.34754 380.52277,438.27879 C 380.64902,437.93254 380.78152,437.57629 380.64777,437.15754"
       style="fill:#182006;fill-opacity:1;fill-rule:nonzero;stroke:none"
       id="path157" />
    <path
       d="M 397.81652,443.00879 C 397.81652,442.98754 397.80652,442.96754 397.79777,442.94879 C 397.80527,442.96379 397.81652,442.97254 397.82152,442.98754 C 397.82152,442.99504 397.81652,443.00129 397.81652,443.00879 z M 395.82402,440.17879 L 395.78777,440.19129 C 395.75402,440.20504 395.69902,440.21379 395.64652,440.22129 C 395.57277,440.23379 395.49527,440.25129 395.42402,440.28254 C 395.37777,440.26879 395.32277,440.26629 395.26902,440.29379 C 395.29027,440.28379 395.31027,440.28004 395.33152,440.28004 C 395.31527,440.28004 395.30652,440.29129 395.29152,440.29379 L 395.26027,440.30004 C 395.25277,440.30379 395.24402,440.31004 395.23652,440.31629 C 395.23652,440.31629 395.23652,440.31629 395.23277,440.31754 C 395.24152,440.31129 395.24777,440.30629 395.25652,440.30004 L 395.12777,440.32254 C 395.10652,440.31004 395.07527,440.29879 395.04027,440.29379 C 395.19277,439.72004 395.30402,439.00004 395.33777,438.40879 C 395.69402,438.46254 396.26652,438.59129 396.33277,438.96254 C 396.50652,439.91379 396.07902,440.08004 395.82402,440.17879 z M 395.02027,440.36629 C 395.02152,440.36254 395.02152,440.35879 395.02402,440.35504 L 395.02402,440.35254 C 395.03777,440.34504 395.05277,440.34254 395.06777,440.33879 C 395.04777,440.34254 395.03402,440.35504 395.02027,440.36629 z M 394.95027,440.47879 C 394.95152,440.46254 394.95527,440.44504 394.96277,440.42879 C 394.96527,440.43254 394.96527,440.43504 394.96652,440.43629 C 394.96152,440.45004 394.95152,440.46379 394.95027,440.47879 z M 398.16902,441.91629 C 398.13902,441.89379 398.05277,441.84879 397.93527,441.91379 C 397.90652,441.93129 397.88527,441.95629 397.87277,441.98629 L 397.80902,442.07004 C 397.78152,442.10629 397.77277,442.15379 397.77902,442.19754 C 397.77902,442.19879 397.78152,442.19879 397.78152,442.20129 C 397.77027,442.19754 397.76277,442.19254 397.75027,442.19254 L 397.72652,442.19254 C 397.68027,442.19254 397.63652,442.21254 397.60652,442.24879 L 397.58277,442.27379 C 397.57027,442.28879 397.51902,442.33754 397.49652,442.34379 C 396.86902,442.05379 396.43402,441.81004 395.96152,441.12004 C 396.05277,441.10379 396.15652,441.08254 396.25027,441.00004 C 396.27777,440.98004 396.32902,440.94004 396.38152,440.89879 C 396.52027,440.79379 396.67277,440.67504 396.74902,440.60004 C 397.18777,440.14629 397.31902,439.36379 397.29652,438.83129 C 397.29652,438.81879 397.29527,438.80504 397.29152,438.79379 C 396.95527,437.60879 395.22527,437.35004 394.48527,437.24004 C 394.39402,437.22504 394.30152,437.21379 394.21402,437.20254 C 394.03402,437.18129 393.86277,437.16129 393.71402,437.13004 C 393.70402,437.12629 393.69402,437.12629 393.68277,437.12629 C 393.64652,437.12629 393.61527,437.12629 393.56027,437.14879 C 393.54527,437.15379 393.52902,437.16254 393.51402,437.17004 C 393.48652,437.14629 393.45402,437.12379 393.41277,437.10254 C 393.37527,437.08379 393.32902,437.08129 393.29027,437.09629 C 393.25027,437.11004 393.21527,437.14129 393.19902,437.18004 L 393.15402,437.27879 C 393.15402,437.28004 393.15402,437.28254 393.15402,437.28504 C 393.10652,437.31629 393.07027,437.36129 393.06402,437.42004 C 393.06027,437.48254 393.09152,437.54129 393.14152,437.58254 C 393.13902,437.59129 393.13902,437.60254 393.13527,437.61129 C 393.10652,437.66879 393.11527,437.74129 393.16152,437.78879 C 393.36402,438.00379 393.63027,438.06129 393.88527,438.08754 C 394.00277,438.09754 394.12777,438.10879 394.27027,438.12379 C 394.35652,438.14129 394.43902,438.16379 394.52652,438.20004 C 394.48152,438.83254 394.34027,439.47379 394.08277,440.21254 C 393.89027,440.73379 393.67277,441.23754 393.48152,441.68379 L 393.34027,442.01629 C 393.33652,442.02129 393.33402,442.02879 393.33277,442.03629 C 393.29777,442.16129 393.23652,442.25754 393.16527,442.37129 C 393.13902,442.41504 393.11152,442.46004 393.08277,442.50754 C 392.99777,442.64879 392.93402,442.78004 392.92152,442.94504 C 392.91902,442.97754 392.92902,443.00879 392.94277,443.03629 C 392.92652,443.09004 392.93402,443.14629 392.97277,443.18879 L 393.03902,443.26379 C 393.08027,443.31379 393.15027,443.33004 393.21277,443.30629 C 393.22652,443.30254 393.23277,443.29004 393.24402,443.28254 C 393.26777,443.29004 393.29027,443.29879 393.31902,443.30379 C 393.46777,443.33004 393.58527,443.26379 393.65152,443.10754 C 393.65027,443.11379 393.64777,443.11754 393.64652,443.12254 C 394.01777,442.45504 394.34277,441.73504 394.64027,441.03379 C 394.64527,441.06129 394.64902,441.08754 394.66027,441.11379 C 394.67152,441.13379 394.68402,441.15129 394.70027,441.16629 C 394.83652,441.28629 394.98527,441.43879 395.13902,441.60129 C 395.13902,441.60254 395.26902,441.74004 395.26902,441.74004 C 395.37652,441.85629 395.47777,441.96379 395.57277,442.05629 C 395.57777,442.06004 395.58152,442.06379 395.58527,442.06754 L 395.83902,442.26504 C 396.38027,442.69254 396.93902,443.13379 397.66027,443.18129 C 397.68527,443.18129 397.70902,443.17379 397.73152,443.16379 C 397.73152,443.16379 397.73152,443.16629 397.73027,443.16629 C 397.73777,443.16129 397.74402,443.15629 397.75027,443.15129 C 397.75902,443.14504 397.76902,443.14129 397.77652,443.13504 C 398.02152,442.99379 398.20402,442.71129 398.20402,442.45129 C 398.20402,442.42129 398.19402,442.39129 398.17777,442.36629 C 398.17402,442.35879 398.17277,442.35504 398.17277,442.35379 C 398.17277,442.35379 398.17277,442.35379 398.17402,442.35004 C 398.17777,442.34379 398.17652,442.33629 398.17902,442.32754 C 398.17402,442.33879 398.17027,442.35004 398.16152,442.35879 C 398.17027,442.35004 398.17402,442.33754 398.17902,442.32379 C 398.18527,442.31004 398.19277,442.29254 398.19277,442.27629 C 398.19277,442.28629 398.19027,442.29879 398.18652,442.31254 C 398.20152,442.28129 398.20652,442.25129 398.20402,442.21754 C 398.20652,442.21129 398.21027,442.20379 398.21402,442.19504 C 398.22527,442.17879 398.24027,442.16504 398.24402,442.14504 C 398.27402,442.00754 398.20027,441.93879 398.16902,441.91629 z M 398.17902,442.32754 C 398.18152,442.32254 398.18527,442.31629 398.18652,442.31254 C 398.18527,442.31629 398.18277,442.32129 398.17902,442.32379 C 398.17902,442.32629 398.17902,442.32754 398.17902,442.32754 z M 395.26027,440.30004 C 395.26152,440.29879 395.26527,440.29379 395.26902,440.29379 C 395.26402,440.29379 395.26027,440.29879 395.25652,440.30004 L 395.26027,440.30004"
       style="fill:#182006;fill-opacity:1;fill-rule:nonzero;stroke:none"
       id="path159" />
    <path
       d="M 412.23152,438.88129 C 412.30152,438.58504 412.35027,438.29754 412.37027,437.93629 C 412.47152,437.95254 412.56902,437.96754 412.65777,437.97879 C 412.84027,438.00379 412.99902,438.02629 413.14527,438.06629 C 413.38777,438.12879 413.59152,438.23379 413.78652,438.47254 C 413.37527,439.20129 412.80652,439.53504 412.04527,439.77379 C 412.10652,439.41879 412.16652,439.14629 412.23152,438.88129 z M 411.84402,440.55129 C 412.04402,440.74629 412.24277,440.80129 412.44402,440.83879 C 412.52902,440.85504 412.61277,440.86504 412.69527,440.87629 C 412.87527,440.89879 413.04652,440.92129 413.19902,440.98879 C 413.20777,440.99504 413.21902,440.99879 413.23027,440.99879 C 413.36027,441.03004 413.49027,441.09754 413.59402,441.19504 C 413.67027,441.26004 413.74277,441.32254 413.82652,441.39504 L 413.91902,441.47629 C 413.61777,441.90504 413.21527,442.19504 412.64777,442.37004 C 412.34902,442.47129 412.05152,442.54129 411.76277,442.60629 C 411.64402,442.63379 411.52652,442.66379 411.40652,442.69379 C 411.53902,441.91379 411.63777,441.33879 411.84402,440.55129 z M 414.74652,441.37379 C 414.59277,440.80504 414.03402,440.47004 413.35652,440.13879 C 413.36152,440.13379 413.36902,440.12629 413.37152,440.12129 C 413.37652,440.11504 413.38027,440.10754 413.38402,440.10254 C 413.38777,440.09754 413.39152,440.09254 413.39777,440.08629 C 413.39902,440.08129 413.40152,440.08004 413.40277,440.07754 C 413.41902,440.08004 413.43402,440.08379 413.45027,440.08004 C 413.63277,440.04379 413.85652,439.86629 413.99902,439.70879 C 413.99402,439.71379 413.99027,439.71879 413.98277,439.72379 C 414.39402,439.37504 414.79402,438.94379 414.64902,438.38254 C 414.64527,438.37129 414.64152,438.35754 414.63402,438.34754 C 414.25652,437.65754 413.63902,437.27379 412.69402,437.13504 C 411.98902,437.04379 411.26402,437.10379 410.56277,437.16254 L 410.30777,437.18379 C 410.26277,437.18629 410.22027,437.21004 410.19277,437.24629 C 410.16777,437.27754 410.14777,437.28879 410.10652,437.31129 C 410.08152,437.32379 410.05402,437.33879 410.02277,437.36004 C 410.03152,437.35379 410.04277,437.34879 410.05152,437.34379 C 409.93902,437.38879 409.88777,437.49129 409.91277,437.61879 C 409.91402,437.63379 409.91902,437.64879 409.92652,437.66379 C 410.11652,438.03254 410.43527,438.03504 410.75152,437.98129 C 410.82902,437.97004 410.90527,437.95379 410.98277,437.94004 C 411.06027,437.92504 411.14027,437.90879 411.22277,437.89629 C 411.32277,437.88129 411.43402,437.86754 411.58652,437.88879 C 411.17527,439.55379 410.81527,441.09754 410.55152,442.80379 C 410.53277,442.79879 410.51277,442.79629 410.49277,442.80004 C 410.46527,442.80379 410.44652,442.82504 410.42402,442.84379 C 410.41652,442.83379 410.40777,442.82379 410.39652,442.80754 C 410.35527,442.74379 410.27777,442.72004 410.20777,442.74379 L 410.12652,442.77629 C 410.11027,442.77129 410.09402,442.76629 410.07777,442.76629 C 410.07902,442.72754 410.07152,442.69129 410.05027,442.66129 C 410.01902,442.62129 409.97277,442.59754 409.92277,442.59754 L 409.85777,442.59754 C 409.80152,442.59754 409.75027,442.62754 409.72277,442.67504 C 409.69402,442.72129 409.69152,442.78129 409.71902,442.83004 C 409.72277,442.84129 409.72527,442.84504 409.72652,442.85129 C 409.72652,442.85254 409.72527,442.85254 409.72527,442.85254 C 409.70277,442.90254 409.70652,442.96004 409.73652,443.00379 C 409.76152,443.04379 409.80402,443.06504 409.85027,443.07254 C 409.95402,443.12129 410.05527,443.14879 410.15527,443.17004 C 410.27527,443.37379 410.50402,443.34129 410.61902,443.32004 C 410.71652,443.37004 410.80652,443.40004 410.90402,443.40004 C 410.97152,443.40004 411.03777,443.38879 411.10402,443.37754 C 411.13902,443.37129 411.17402,443.36629 411.20652,443.36129 C 411.40152,443.33879 411.56027,443.32129 411.69902,443.40254 C 411.73027,443.42129 411.76527,443.42879 411.80027,443.42504 C 412.75152,443.30629 413.82902,443.07379 414.61027,442.24379 C 414.63277,442.22129 414.64777,442.19254 414.65152,442.16254 C 414.67152,442.05129 414.70027,441.95129 414.73277,441.84504 C 414.78152,441.66629 414.78527,441.51629 414.74652,441.37379"
       style="fill:#182006;fill-opacity:1;fill-rule:nonzero;stroke:none"
       id="path161" />
    <path
       d="M 482.83277,441.37504 L 482.83027,441.37504 C 482.84277,441.36629 482.85777,441.36004 482.87652,441.35879 C 482.86152,441.36254 482.84527,441.36629 482.83277,441.37504 z M 482.99402,441.36629 C 482.99027,441.35504 482.98777,441.34504 482.98652,441.33379 C 482.97902,441.30879 482.96652,441.28629 482.94777,441.26879 L 482.93652,441.25754 C 482.88152,441.20004 482.79527,441.19254 482.73027,441.23754 C 482.59527,441.33504 482.47777,441.39254 482.36402,441.45004 L 482.34402,441.46129 C 482.22652,441.53504 482.12402,441.60504 482.01527,441.71379 C 482.01527,441.71504 482.01152,441.71504 482.00902,441.71504 C 482.00652,441.71629 481.99902,441.71629 481.99652,441.71754 C 481.96902,441.71754 481.94402,441.72504 481.92027,441.73879 C 481.92027,441.73879 481.91652,441.74004 481.91402,441.74004 C 481.90777,441.74379 481.89277,441.75129 481.87527,441.76004 C 481.84777,441.77379 481.82402,441.79379 481.80652,441.81879 C 481.79152,441.83879 481.78277,441.86004 481.77902,441.88004 C 481.68652,441.92254 481.59652,441.96754 481.49777,442.02004 C 481.37027,442.08754 481.24027,442.15629 481.10777,442.21629 C 480.88777,442.32129 480.56277,442.46254 480.26777,442.47504 C 480.00277,442.49254 479.77027,442.33754 479.63402,442.05379 C 479.50402,441.77629 479.54027,441.22004 479.65402,440.83879 C 480.01402,440.82754 480.30652,440.80004 480.61027,440.77004 C 480.86027,440.74504 481.12152,440.71879 481.43527,440.70254 C 481.47152,440.70254 481.50152,440.69004 481.52527,440.67754 C 481.55777,440.69379 481.59652,440.69754 481.63527,440.68629 C 481.71277,440.66379 481.76152,440.65754 481.80652,440.65004 C 481.83152,440.64629 481.85527,440.64379 481.87902,440.63629 C 481.89277,440.63379 481.90777,440.62879 481.91777,440.62254 C 481.98027,440.59004 482.03902,440.55379 482.16027,440.41629 C 482.16902,440.40504 482.17652,440.39379 482.18402,440.38379 C 482.29277,440.17379 482.25402,440.05754 482.14777,439.91629 C 482.12777,439.89379 482.11652,439.88004 482.10527,439.86379 C 482.08902,439.84129 482.07277,439.81879 482.04902,439.79379 C 482.02402,439.76629 481.98902,439.74754 481.95527,439.74379 C 481.61277,439.69629 481.27527,439.73379 480.94902,439.76754 L 480.82902,439.77879 C 480.82402,439.78004 480.67277,439.80129 480.67277,439.80129 C 480.43277,439.83504 480.18277,439.86254 479.93152,439.87129 C 480.11152,439.37504 480.30277,438.87504 480.53902,438.43379 C 480.76277,438.42004 480.99652,438.38629 481.22527,438.34879 C 481.37402,438.32254 481.52652,438.29879 481.67527,438.28129 C 482.10527,438.21629 482.44652,438.23379 482.69777,438.33379 C 482.74777,438.35254 482.80152,438.34754 482.84527,438.31754 C 482.88527,438.29129 482.90777,438.24629 482.91152,438.20004 C 482.91652,438.19754 482.92027,438.19504 482.92402,438.19254 C 483.07277,438.10879 483.11277,437.99754 483.05777,437.86254 C 483.04777,437.77379 483.01652,437.70754 482.96402,437.64754 C 482.94777,437.62879 482.90902,437.59004 482.89527,437.54879 C 482.87902,437.49879 482.83527,437.46129 482.78402,437.44754 C 482.14027,437.29004 481.46027,437.37254 480.82027,437.47129 C 480.82152,437.47129 480.54652,437.51379 480.54652,437.51379 C 480.00527,437.59629 479.44652,437.68254 478.92902,437.69254 C 478.88527,437.69379 478.84402,437.71254 478.81527,437.74504 C 478.81027,437.75004 478.80277,437.75629 478.78902,437.76504 C 478.78152,437.77129 478.77027,437.78379 478.76152,437.79004 C 478.73652,437.80129 478.71277,437.81129 478.69027,437.82379 C 478.68277,437.82754 478.67527,437.83254 478.66777,437.83879 C 478.59777,437.89504 478.55402,437.96879 478.51777,438.09129 C 478.50902,438.11879 478.50902,438.14504 478.51527,438.17254 C 478.59777,438.53129 478.89402,438.57129 479.05527,438.59129 C 479.16777,438.59879 479.26902,438.59379 479.36402,438.59004 C 479.40777,438.58754 479.44652,438.59129 479.49027,438.59129 C 479.44277,438.73879 479.39152,438.88379 479.33527,439.01879 C 479.33152,439.02879 479.29027,439.14254 479.29027,439.14254 C 479.23527,439.29629 479.17902,439.45254 479.14902,439.62379 C 479.14527,439.63754 479.14527,439.65254 479.14777,439.66504 C 479.17152,439.91754 479.10152,439.93879 478.97652,439.96504 C 478.93402,439.96629 478.89027,439.96879 478.83527,439.98254 C 478.84277,439.98129 478.85152,439.97879 478.86027,439.97879 C 478.77277,439.98754 478.54152,440.01254 478.50152,440.30004 C 478.46652,440.50754 478.57777,440.63254 478.63902,440.70129 C 478.64277,440.70629 478.65027,440.71254 478.65527,440.71754 C 478.71902,440.77004 478.78402,440.78879 478.82652,440.80254 C 478.69777,441.34629 478.73777,442.02379 478.94152,442.49629 C 479.20777,443.15629 479.80652,443.30504 480.29902,443.36129 C 480.31027,443.36379 480.31902,443.36379 480.33027,443.36379 C 480.73027,443.32879 481.03527,443.23879 481.23527,443.09754 C 481.31777,443.03629 481.36277,443.00754 481.43277,443.01504 C 481.47027,443.01754 481.50527,443.01004 481.53652,442.99004 C 481.62652,442.93129 481.72152,442.87254 481.81277,442.81629 C 482.03027,442.68129 482.25652,442.54254 482.46902,442.37254 C 482.71152,442.17129 482.97027,441.91879 483.07277,441.54504 C 483.09152,441.47879 483.06527,441.40754 483.00902,441.37004 C 483.00277,441.36754 482.99777,441.36754 482.99402,441.36629 z M 465.49777,437.28254 C 465.46527,437.26879 465.43527,437.26879 465.40777,437.27129 C 465.37527,437.25254 465.34027,437.24129 465.30152,437.24879 C 465.15777,437.27379 465.11027,437.28254 465.06777,437.34879 C 465.05527,437.37004 465.04777,437.39754 465.04652,437.42629 C 465.03652,437.43504 465.02402,437.44754 464.99902,437.46754 C 464.97277,437.49004 464.95402,437.51879 464.94527,437.55129 C 464.91027,437.68379 464.93027,437.81504 464.99652,437.93754 C 464.99527,437.95754 464.99277,437.97754 464.99277,437.99629 C 464.98777,437.99879 464.98152,437.99754 464.97777,438.00129 C 464.96152,438.01754 464.89027,438.09754 464.96402,438.21629 C 464.96402,438.22004 464.96152,438.22254 464.96152,438.22629 C 464.95777,438.27129 464.92527,438.40629 464.89902,438.50254 C 464.85902,438.66129 464.83527,438.76254 464.84777,438.83504 C 464.73777,439.15254 464.67527,439.43004 464.62027,439.69879 C 464.56277,439.95879 464.50652,440.22879 464.40027,440.54504 C 464.39652,440.55129 464.39652,440.55754 464.39402,440.56379 C 464.34152,440.82629 464.28402,441.04879 464.24777,441.19629 C 464.21777,441.30504 464.20902,441.34879 464.20527,441.37879 C 464.17402,441.48004 464.15777,441.58629 464.14277,441.69254 C 464.12527,441.83629 464.10402,441.94379 464.06777,442.01004 C 463.45652,441.48254 463.01402,440.86129 462.55277,440.19879 C 462.20402,439.69879 461.84277,439.18379 461.39652,438.70754 C 461.44027,438.43504 461.38152,438.11754 461.23777,437.95754 C 461.23402,437.95254 461.23027,437.94879 461.22402,437.94379 C 461.09902,437.83254 460.97902,437.82504 460.90277,437.84004 C 460.80277,437.85879 460.71527,437.92254 460.63277,438.02754 C 460.62527,438.02379 460.61902,438.01879 460.61402,438.01504 C 460.41402,437.85129 460.18652,437.66754 459.87777,437.66754 C 459.85777,437.66754 459.83652,437.67129 459.81902,437.67879 C 459.64652,437.74879 459.58902,437.83129 459.51527,437.93379 C 459.50277,437.95254 459.49027,437.97129 459.47527,437.99254 C 459.44777,438.03129 459.43902,438.07879 459.45027,438.12504 C 459.46027,438.17129 459.49152,438.21004 459.53652,438.22879 C 459.57902,438.25004 459.58902,438.26879 459.61652,438.31629 C 459.65527,438.38629 459.71402,438.48879 459.87902,438.54629 C 459.90027,438.55379 459.92152,438.55629 459.94152,438.55504 C 459.99652,438.55254 460.14902,438.58629 460.39777,438.90379 C 460.05777,440.17004 459.71027,441.65254 459.67527,443.12629 C 459.67527,443.11129 459.67902,443.09629 459.68277,443.08379 C 459.63902,443.22754 459.76152,443.31629 459.81277,443.35254 C 459.83152,443.36504 459.86152,443.38504 459.86902,443.39504 C 459.86652,443.39379 459.86277,443.38879 459.86152,443.38004 C 459.87027,443.46254 459.93777,443.52379 460.02027,443.52379 C 460.09027,443.52379 460.13277,443.53004 460.19152,443.53754 C 460.21027,443.55004 460.22902,443.56129 460.23777,443.56504 C 460.34902,443.60629 460.42652,443.51504 460.45527,443.48129 C 460.46152,443.47379 460.47277,443.46129 460.47402,443.45754 C 460.47402,443.45754 460.47277,443.46129 460.46277,443.46629 C 460.51152,443.43754 460.54027,443.38629 460.54277,443.33004 C 460.56277,442.04504 460.88027,440.75754 461.18527,439.72754 C 461.45152,440.05629 461.70652,440.40879 461.95277,440.76004 C 462.52527,441.58004 463.11777,442.42754 463.93527,442.95254 C 463.94027,442.95629 463.94777,442.96004 463.95402,442.96379 C 464.23277,443.09379 464.37652,443.04129 464.54527,442.95129 C 464.59277,442.92754 464.63902,442.90379 464.69777,442.88254 C 464.74152,442.86879 464.77652,442.83504 464.79277,442.79379 C 465.06277,442.13879 465.14777,441.42754 465.23027,440.74129 C 465.26152,440.47754 465.29277,440.22879 465.33027,439.98879 C 465.33027,439.98254 465.32902,439.97629 465.32902,439.97129 C 465.37652,439.90629 465.37277,439.83129 465.36902,439.79379 C 465.36902,439.78629 465.36777,439.77879 465.36777,439.77379 C 465.37652,439.75754 465.39527,439.74504 465.39652,439.72754 C 465.40027,439.70254 465.39902,439.68004 465.39152,439.65754 C 465.39277,439.65379 465.39277,439.65379 465.39527,439.65254 C 465.42027,439.62004 465.48652,439.53754 465.43902,439.43629 C 465.43527,439.42629 465.42402,439.42254 465.41777,439.41379 C 465.50152,438.97629 465.59152,438.71254 465.71027,438.36879 C 465.71027,438.36879 465.73152,438.31254 465.73152,438.31379 C 465.91527,437.80504 465.75902,437.51504 465.59027,437.35879 C 465.56527,437.32504 465.53652,437.29629 465.49777,437.28254 z M 446.22777,437.29879 C 445.99902,437.28254 445.79152,437.41504 445.74777,437.60379 C 445.67027,437.97129 445.57402,438.34879 445.47652,438.74754 C 445.17652,439.95504 444.83652,441.32379 444.93027,442.60629 C 444.93027,442.61754 444.93152,442.62879 444.93527,442.64004 C 445.04652,443.01004 445.29777,443.21379 445.70527,443.26254 C 445.76027,443.27004 445.81527,443.24504 445.84777,443.20129 C 445.86277,443.18504 445.87902,443.16754 445.89652,443.14879 C 445.96777,443.06879 446.07527,442.95004 446.04652,442.75879 C 446.04652,442.74879 446.04277,442.73879 446.04152,442.73004 C 445.98777,442.58004 445.90027,442.51504 445.83027,442.46379 C 445.81152,442.45129 445.79777,442.43754 445.78152,442.42379 C 445.74527,441.35129 445.99902,440.36129 446.26652,439.31504 C 446.39777,438.80754 446.53152,438.28504 446.63777,437.73254 C 446.63902,437.71629 446.64152,437.70129 446.63902,437.68629 C 446.61902,437.46629 446.45777,437.31504 446.22777,437.29879 z M 429.58652,440.30879 C 429.94027,439.75379 430.30777,439.19004 430.70652,438.59004 C 430.71527,438.79629 430.71902,439.00254 430.71902,439.20629 C 430.71902,439.46879 430.72277,439.73754 430.74402,439.99379 C 430.36277,440.06254 429.96527,440.16879 429.58652,440.30879 z M 431.99652,442.53379 C 431.96777,442.50879 431.94277,442.48379 431.91777,442.45879 C 431.68652,441.94379 431.62402,441.34504 431.57777,440.67379 C 431.58902,440.67129 431.60152,440.66879 431.62402,440.66379 C 431.66277,440.65504 431.70152,440.64879 431.74277,440.64129 C 431.92527,440.61004 432.15152,440.57004 432.16777,440.37254 C 432.16527,440.40129 432.15527,440.42754 432.14027,440.45004 C 432.17152,440.40504 432.27027,440.26754 432.20777,440.12879 C 432.15652,440.01254 432.03902,439.98254 431.94152,439.97004 C 431.94027,439.96879 431.93777,439.96629 431.93777,439.96504 C 431.85902,439.85879 431.72527,439.88254 431.60777,439.90504 C 431.60152,439.90629 431.59402,439.90754 431.58777,439.90879 L 431.56527,439.61379 C 431.52652,439.09129 431.48402,438.54879 431.47652,438.03254 C 431.47652,438.02004 431.47527,438.00754 431.47152,437.99379 C 431.44777,437.90379 431.42777,437.81129 431.40777,437.71754 C 431.36402,437.52129 431.31902,437.31504 431.23152,437.12629 C 431.15527,436.95504 430.97902,436.76254 430.77402,436.75379 C 430.64152,436.75004 430.52652,436.82254 430.45402,436.95629 C 430.44152,436.97879 430.43652,437.00504 430.43652,437.03004 C 430.43652,437.03754 430.43402,437.05254 430.43277,437.06629 C 430.42527,437.10629 430.41402,437.19879 430.46652,437.27379 C 430.48027,437.31504 430.50027,437.36254 430.52652,437.41754 C 430.53402,437.43504 430.54277,437.45504 430.55402,437.47879 C 430.50402,437.47379 430.45652,437.48379 430.42152,437.52129 C 429.90152,438.09254 429.47902,438.79629 429.10652,439.41879 C 428.84402,439.85629 428.59652,440.26879 428.34777,440.58504 C 428.31527,440.62754 428.31152,440.67879 428.32652,440.72754 C 428.24902,440.75754 428.14402,440.82504 428.11027,440.98129 C 427.48402,441.74504 427.11652,442.39879 426.99027,442.97129 C 426.98402,442.99129 426.98402,443.01254 426.98777,443.03254 C 427.03527,443.31129 427.27402,443.50754 427.51652,443.47379 C 427.56402,443.46629 427.60277,443.44004 427.62902,443.40129 C 427.78152,443.16129 427.94277,442.88254 428.10027,442.61254 C 428.26402,442.33379 428.41777,442.07254 428.55902,441.85004 C 429.30652,441.29004 429.88777,441.11879 430.68527,440.92254 C 430.72027,440.91254 430.76777,440.89879 430.81652,440.88754 C 430.82277,441.05129 430.84152,441.21129 430.86402,441.36379 C 430.87652,441.44754 430.88777,441.52754 430.89652,441.60754 C 430.89902,441.61754 430.90027,441.62629 430.90402,441.63504 C 430.93902,441.75629 430.97027,441.89379 431.00277,442.04129 C 431.12402,442.59254 431.27527,443.27754 431.90152,443.32504 C 431.96152,443.33004 432.01277,443.29504 432.04402,443.24379 C 432.09777,443.22754 432.15652,443.19629 432.19902,443.13379 C 432.24402,443.06504 432.25527,442.98004 432.23027,442.87629 C 432.17902,442.69379 432.08152,442.60879 431.99652,442.53379"
       style="fill:#182006;fill-opacity:1;fill-rule:nonzero;stroke:none"
       id="path163" />
    <g
       transform="matrix(1.25,0,0,-1.25,-24.492232,495.51004)"
       id="g165">
      <g
         id="g167"
         clip-path="url(#clipPath169)">
        <path
           d="M 275.33,83.524 L 275.748,83.94 C 270.069,80.911 265.4,76.479 262.118,70.917 C 259.585,66.627 257.272,61.508 255.979,56.677 C 255.691,55.599 255.192,53.706 256.388,52.976 C 257.782,52.123 260.207,53.567 261.394,54.19 C 267.653,57.472 274.976,62.951 277.053,70.028 C 278.447,74.789 276.401,78.978 275.33,83.524"
           style="fill:#e68225;fill-opacity:1;fill-rule:nonzero;stroke:none"
           id="path173" />
        <path
           d="M 286.525,97.086 C 254.24,81.774 238.892,71.044 232.951,78.305 C 232.499,78.858 243.923,61.882 252.668,40.525 C 252.668,40.525 246.108,77.915 286.525,97.086"
           style="fill:#0c74b0;fill-opacity:1;fill-rule:nonzero;stroke:none"
           id="path175" />
        <path
           d="M 258.647,74.837 L 258.909,80.327 L 260.722,75.237 L 267.741,81.358 L 262.123,73.502 L 271.088,72.047 L 261.797,70.942 L 265.646,60.805 L 259.991,69.483 L 255.442,62.349 L 258.063,70.223 L 252.112,68.662 L 257.464,72.609 L 253.134,77.38 L 258.647,74.837"
           style="fill:#ffffff;fill-opacity:1;fill-rule:nonzero;stroke:none"
           id="path177" />
        <path
           d="M 151.585,69.374 L 151.543,69.374 L 151.543,55.319 L 149.309,55.319 L 149.309,72.986 L 151.9,72.986 L 161.573,58.932 L 161.616,58.932 L 161.616,72.986 L 163.85,72.986 L 163.85,55.319 L 161.258,55.319 L 151.585,69.374"
           style="fill:#686f6e;fill-opacity:1;fill-rule:nonzero;stroke:none"
           id="path179" />
      </g>
    </g>
    <path
       d="M 187.31027,415.22629 C 187.39027,412.72004 189.31277,412.00879 191.57777,412.00879 C 193.71027,412.00879 195.55527,412.44254 195.55527,414.67004 C 195.55527,416.12254 194.63402,416.43254 193.15777,416.61754 L 190.15527,416.98879 C 185.73027,417.54629 184.22777,419.06129 184.22777,422.03004 C 184.22777,424.13379 185.25527,426.91754 189.83902,426.91754 C 192.07902,426.91754 194.65902,425.95879 195.71277,424.28879 C 195.89652,426.11254 196.76652,426.54629 198.08402,426.54629 C 198.71652,426.54629 199.50652,426.48504 200.13902,426.36129 L 200.13902,424.19379 C 199.87527,424.25629 199.50652,424.31879 199.21652,424.31879 C 198.40027,424.31879 198.03277,423.88629 198.03277,422.92754 L 198.03277,414.20629 C 198.03277,410.43254 194.50152,409.59629 191.68277,409.59629 C 187.54777,409.59629 185.17652,411.17379 184.83402,415.22629 L 187.31027,415.22629 z M 195.55527,419.95879 C 195.55527,422.64879 193.05152,424.50379 190.07652,424.50379 C 188.15152,424.50379 186.86152,423.45254 186.86152,421.93879 C 186.86152,420.23629 187.94152,419.58629 189.99652,419.27879 L 192.97402,418.84629 C 194.45027,418.62879 195.15902,418.41254 195.55527,417.88629 L 195.55527,419.95879"
       style="fill:#686f6e;fill-opacity:1;fill-rule:nonzero;stroke:none"
       id="path181" />
    <path
       d="M 203.51027,410.15254 L 206.14402,410.15254 L 206.14402,412.59629 L 206.19777,412.59629 C 207.43527,410.33879 209.62277,409.59629 211.59777,409.59629 C 214.91527,409.59629 217.39277,411.26629 217.39277,415.31754 L 217.39277,426.36129 L 214.75777,426.36129 L 214.75777,415.93754 C 214.75777,413.55629 213.49402,412.19504 210.67402,412.19504 C 208.27902,412.19504 206.14402,413.83379 206.14402,417.02004 L 206.14402,426.36129 L 203.51027,426.36129 L 203.51027,410.15254"
       style="fill:#686f6e;fill-opacity:1;fill-rule:nonzero;stroke:none"
       id="path183" />
    <path
       d="M 222.81777,405.17379 L 225.45152,405.17379 L 225.45152,410.15254 L 229.40402,410.15254 L 229.40402,412.56629 L 225.45152,412.56629 L 225.45152,422.55754 C 225.45152,423.85379 226.24277,424.31879 227.58652,424.31879 C 228.19152,424.31879 228.79777,424.22629 229.40402,424.10129 L 229.40402,426.70129 C 228.50902,426.88379 227.53402,426.91754 226.45402,426.91754 C 223.87277,426.91754 222.81777,425.43254 222.81777,423.08254 L 222.81777,412.56629 L 219.97277,412.56629 L 219.97277,410.15254 L 222.81777,410.15254 L 222.81777,405.17379"
       style="fill:#686f6e;fill-opacity:1;fill-rule:nonzero;stroke:none"
       id="path185" />
    <path
       d="M 253.45402,421.25629 C 253.45402,422.71129 254.45277,424.50379 257.79902,424.50379 C 261.19777,424.50379 262.01527,423.11254 262.01527,421.96754 C 262.01527,420.82254 261.51402,420.14379 259.40652,419.80504 L 255.06152,419.12379 C 253.08527,418.81504 251.32027,417.33004 251.32027,414.82379 C 251.32027,411.54504 253.74402,409.59629 257.61527,409.59629 C 262.14652,409.59629 264.12277,411.88504 264.35902,415.04129 L 261.72527,415.04129 C 261.64652,413.40129 260.33027,412.00879 257.58902,412.00879 C 255.90277,412.00879 253.95402,412.56629 253.95402,414.48504 C 253.95402,415.56629 254.37527,416.18504 256.24652,416.49379 L 259.98777,417.08254 C 263.46402,417.63879 264.80652,419.09379 264.80652,421.38129 C 264.80652,425.15379 262.09527,426.91754 257.88027,426.91754 C 254.71902,426.91754 251.10902,425.95879 250.81902,421.25629 L 253.45402,421.25629"
       style="fill:#686f6e;fill-opacity:1;fill-rule:nonzero;stroke:none"
       id="path187" />
    <path
       d="M 350.72777,404.27754 L 354.59902,404.27754 L 354.59902,426.36129 L 351.80777,426.36129 L 351.80777,408.05129 L 351.75402,408.05129 L 344.43277,426.36129 L 341.95277,426.36129 L 334.65902,408.42254 L 334.60527,408.42254 L 334.60527,426.36129 L 331.81402,426.36129 L 331.81402,404.27754 L 335.74027,404.27754 L 343.19277,422.58629 L 350.72777,404.27754"
       style="fill:#686f6e;fill-opacity:1;fill-rule:nonzero;stroke:none"
       id="path189" />
    <path
       d="M 380.12402,405.17379 L 382.75902,405.17379 L 382.75902,410.15254 L 386.71027,410.15254 L 386.71027,412.56629 L 382.75902,412.56629 L 382.75902,422.55754 C 382.75902,423.85379 383.54777,424.31879 384.89027,424.31879 C 385.49652,424.31879 386.10402,424.22629 386.71027,424.10129 L 386.71027,426.70129 C 385.81402,426.88379 384.84027,426.91754 383.75902,426.91754 C 381.17777,426.91754 380.12402,425.43254 380.12402,423.08254 L 380.12402,412.56629 L 377.27902,412.56629 L 377.27902,410.15254 L 380.12402,410.15254 L 380.12402,405.17379"
       style="fill:#686f6e;fill-opacity:1;fill-rule:nonzero;stroke:none"
       id="path191" />
    <path
       d="M 390.81902,410.15254 L 393.45152,410.15254 L 393.45152,413.12379 L 393.50652,413.12379 C 394.74402,410.55629 396.50902,409.59629 398.24777,409.59629 C 398.90527,409.59629 399.25027,409.62879 399.74777,409.78379 L 399.74777,413.12379 C 399.08902,412.93754 398.58902,412.81254 397.87902,412.81254 C 395.27152,412.81254 393.45152,414.60629 393.45152,418.13379 L 393.45152,426.36129 L 390.81902,426.36129 L 390.81902,410.15254"
       style="fill:#686f6e;fill-opacity:1;fill-rule:nonzero;stroke:none"
       id="path193" />
    <path
       d="M 401.98777,418.25629 C 401.98777,422.92754 404.62277,426.91754 409.99652,426.91754 C 415.36902,426.91754 418.00277,422.92754 418.00277,418.25629 C 418.00277,413.58754 415.36902,409.59629 409.99652,409.59629 C 404.62277,409.59629 401.98777,413.58754 401.98777,418.25629 z M 415.21152,418.25629 C 415.21152,421.19379 413.81527,424.31879 409.99652,424.31879 C 406.17527,424.31879 404.77902,421.19379 404.77902,418.25629 C 404.77902,415.31754 406.17527,412.19504 409.99652,412.19504 C 413.81527,412.19504 415.21152,415.31754 415.21152,418.25629"
       style="fill:#686f6e;fill-opacity:1;fill-rule:nonzero;stroke:none"
       id="path195" />
    <path
       d="M 422.19152,432.60754 L 424.82652,432.60754 L 424.82652,424.28879 L 424.87777,424.28879 C 425.93152,426.05129 428.06777,426.91754 430.12027,426.91754 C 434.28277,426.91754 437.62777,423.79129 437.62777,418.35004 C 437.62777,412.90629 434.28277,409.78379 430.12027,409.78379 C 428.09277,409.78379 425.90402,410.71129 424.87777,412.41129 L 424.82652,412.41129 L 424.82652,410.15254 L 422.19152,410.15254 L 422.19152,432.60754 z M 434.83527,418.35004 C 434.83527,422.06129 432.83402,424.31879 429.77902,424.31879 C 426.69402,424.31879 424.66777,422.06129 424.66777,418.35004 C 424.66777,415.28754 426.19652,412.38004 429.77902,412.38004 C 433.33527,412.38004 434.83527,415.28754 434.83527,418.35004"
       style="fill:#686f6e;fill-opacity:1;fill-rule:nonzero;stroke:none"
       id="path197" />
    <path
       d="M 441.21152,418.25629 C 441.21152,422.92754 443.84527,426.91754 449.21902,426.91754 C 454.59152,426.91754 457.22652,422.92754 457.22652,418.25629 C 457.22652,413.58754 454.59152,409.59629 449.21902,409.59629 C 443.84527,409.59629 441.21152,413.58754 441.21152,418.25629 z M 454.43402,418.25629 C 454.43402,421.19379 453.04027,424.31879 449.21902,424.31879 C 445.40027,424.31879 444.00277,421.19379 444.00277,418.25629 C 444.00277,415.31754 445.40027,412.19504 449.21902,412.19504 C 453.04027,412.19504 454.43402,415.31754 454.43402,418.25629"
       style="fill:#686f6e;fill-opacity:1;fill-rule:nonzero;stroke:none"
       id="path199" />
    <path
       d="M 461.41402,426.36129 L 464.04902,426.36129 L 464.04902,404.09129 L 461.41402,404.09129 L 461.41402,426.36129 z"
       style="fill:#686f6e;fill-opacity:1;fill-rule:nonzero;stroke:none"
       id="path201" />
    <path
       d="M 361.52527,406.12004 L 361.56652,407.40254 L 372.04527,407.40254 L 372.04527,405.05879 L 361.52527,406.12004"
       style="fill:#686f6e;fill-opacity:1;fill-rule:evenodd;stroke:none"
       id="path203" />
    <g
       transform="matrix(1.25,0,0,-1.25,-24.492232,495.51004)"
       id="g205">
      <g
         id="g207"
         clip-path="url(#clipPath209)">
        <path
           d="M 217.468,61.381 C 217.468,66.751 214.391,68.731 211.484,68.731 C 207.185,68.731 205.076,65.538 205.076,61.803 C 205.076,58.066 207.185,54.874 211.484,54.874 C 213.653,54.874 216.12,56.136 217.173,59.254 L 214.939,59.254 C 214.222,57.423 212.578,56.953 211.378,56.953 C 210.094,56.953 208.741,57.627 207.961,58.909 C 207.507,59.591 207.217,60.629 207.217,61.793 C 207.217,62.745 207.413,63.612 207.733,64.271 C 208.405,65.797 209.829,66.652 211.378,66.652 C 213.359,66.652 214.918,65.341 215.234,62.99 L 208.983,62.99 L 207.944,61.061 L 217.468,61.061 L 217.468,61.381"
           style="fill:#686f6e;fill-opacity:1;fill-rule:nonzero;stroke:none"
           id="path213" />
        <path
           d="M 406.452,61.381 C 406.452,66.751 403.376,68.731 400.466,68.731 C 396.168,68.731 394.06,65.538 394.06,61.803 C 394.06,58.066 396.168,54.874 400.466,54.874 C 402.639,54.874 405.103,56.136 406.157,59.254 L 403.924,59.254 C 403.205,57.423 401.563,56.953 400.362,56.953 C 399.076,56.953 397.724,57.627 396.944,58.909 C 396.491,59.591 396.2,60.629 396.2,61.793 C 396.2,62.745 396.396,63.612 396.716,64.271 C 397.389,65.797 398.813,66.652 400.362,66.652 C 402.342,66.652 403.902,65.341 404.219,62.99 L 397.968,62.99 L 396.928,61.061 L 406.452,61.061 L 406.452,61.381"
           style="fill:#686f6e;fill-opacity:1;fill-rule:nonzero;stroke:none"
           id="path215" />
      </g>
    </g>
    <path
       d="M 374.94777,418.78379 C 374.94777,412.07129 371.09902,409.59629 367.46527,409.59629 C 362.09152,409.59629 359.45902,413.58754 359.45902,418.25629 C 359.45902,422.92754 362.09152,426.91754 367.46527,426.91754 C 370.17902,426.91754 373.26027,425.34004 374.57652,421.44254 L 371.78402,421.44254 C 370.88777,423.73129 368.83527,424.31879 367.33152,424.31879 C 365.72902,424.31879 364.03777,423.47629 363.06277,421.87379 C 362.49527,421.02129 362.13152,419.72379 362.13152,418.26879 C 362.13152,417.07879 362.37777,415.99504 362.77777,415.17129 C 363.61652,413.26379 365.39777,412.19504 367.33152,412.19504 C 369.80652,412.19504 371.75777,413.83379 372.15277,416.77254 L 364.33902,416.77254 L 363.04027,419.18379 L 374.94777,419.18379 L 374.94777,418.78379"
       style="fill:#686f6e;fill-opacity:1;fill-rule:nonzero;stroke:none"
       id="path217" />
    <path
       d="M 202.25277,442.57504 C 202.24902,442.58629 202.27402,442.56629 202.25277,442.57504"
       style="fill:#182006;fill-opacity:1;fill-rule:nonzero;stroke:none"
       id="path219" />
    <path
       d="M 205.05277,443.33629 C 205.04902,443.33629 205.04527,443.33629 205.04277,443.33629 C 205.04027,443.33754 205.04027,443.33754 205.03652,443.33879 C 205.04277,443.33754 205.04777,443.33754 205.05277,443.33629"
       style="fill:#182006;fill-opacity:1;fill-rule:nonzero;stroke:none"
       id="path221" />
    <path
       d="M 205.26527,442.90379 C 205.26277,442.90004 205.26152,442.89504 205.25902,442.88879 L 205.25027,442.86879 C 205.22277,442.80754 205.18902,442.72629 205.13902,442.66004 C 205.08777,442.59254 205.03277,442.55879 204.98027,442.54379 C 204.85027,441.73254 204.54652,440.57629 204.57277,439.98879 C 204.58527,439.66879 204.60527,439.34629 204.62652,439.03629 C 204.65402,438.59629 204.68277,438.14379 204.69027,437.69129 C 204.69152,437.65629 204.67652,437.61879 204.65277,437.59254 L 204.61527,437.55254 C 204.57652,437.51004 204.54527,437.47629 204.50527,437.44254 C 204.50027,437.43629 204.49527,437.43254 204.48902,437.42879 C 204.46902,437.41629 204.45152,437.40379 204.43152,437.39379 C 204.40027,437.37629 204.36777,437.35629 204.32902,437.33004 C 204.29527,437.30629 204.25027,437.29629 204.21027,437.30879 C 204.13402,437.33004 204.07777,437.37879 204.03152,437.44504 C 203.95527,437.48004 203.88527,437.53129 203.87652,437.53754 C 203.86902,437.54129 203.86277,437.54879 203.85777,437.55379 L 203.86027,437.66379 C 203.85027,437.67129 203.83902,437.67879 203.82902,437.69004 C 203.81277,437.70754 203.80277,437.73254 203.79652,437.75754 C 203.78777,437.76379 203.77277,437.77379 203.74652,437.78879 C 203.72027,437.80504 203.69902,437.82754 203.68652,437.85879 C 203.63527,437.97504 203.63152,438.09754 203.66777,438.22004 C 203.66152,438.23754 203.65652,438.25504 203.65402,438.27129 C 203.65027,438.27379 203.64527,438.27129 203.64152,438.27504 C 203.62402,438.28629 203.54527,438.34879 203.59152,438.47254 C 203.59027,438.47379 203.58902,438.47504 203.58902,438.47754 C 203.57902,438.51879 203.52777,438.63379 203.48902,438.71754 C 203.42652,438.85754 203.38902,438.94879 203.38902,439.01754 C 203.23777,439.29254 203.13777,439.53754 203.04277,439.77379 C 202.95152,440.00254 202.85652,440.24004 202.70902,440.51004 C 202.70652,440.51754 202.70402,440.52254 202.70152,440.52879 C 202.61152,440.76379 202.32652,441.15879 202.26902,441.28629 C 202.22652,441.38254 202.25652,441.35504 202.24902,441.38004 C 202.20527,441.46879 202.15152,441.45754 202.12152,441.55129 C 202.08152,441.68004 201.79652,441.67629 201.75277,441.73254 C 201.30777,441.14504 201.44777,440.56879 201.15527,439.88379 C 200.93652,439.36754 200.90402,438.69379 200.59527,438.18379 C 200.68152,437.94379 200.68152,437.64129 200.58402,437.47129 C 200.58152,437.46629 200.57777,437.46254 200.57402,437.45629 C 200.48277,437.33254 200.38027,437.30754 200.31027,437.30754 C 200.22027,437.30754 200.13277,437.35129 200.04152,437.43629 C 200.03777,437.43004 200.03277,437.42629 200.02902,437.42004 C 199.88152,437.23754 199.71402,437.03004 199.44652,436.97879 C 199.42777,436.97504 199.41027,436.97504 199.39277,436.97879 C 199.23027,437.01504 199.16652,437.08004 199.08652,437.16254 C 199.07277,437.17754 199.05777,437.19379 199.04027,437.21004 C 199.01027,437.24129 198.99402,437.28254 198.99652,437.32754 C 198.99777,437.37129 199.01902,437.41129 199.05277,437.43879 C 199.08777,437.46379 199.09402,437.48254 199.11027,437.53129 C 199.13277,437.60004 199.16652,437.70504 199.30152,437.78504 C 199.31652,437.79504 199.33402,437.80129 199.35277,437.80504 C 199.41277,437.81254 199.53402,437.87879 199.69277,438.20004 C 199.18277,439.30379 198.00277,442.46504 197.72902,443.81004 C 197.73152,443.79629 197.73527,443.78629 197.74027,443.77504 C 197.68152,443.89879 197.77402,443.99754 197.81277,444.04129 C 197.82527,444.05379 197.84652,444.07754 197.85152,444.08754 C 197.85152,444.08629 197.84902,444.08129 197.85027,444.07379 C 197.84277,444.14879 197.89277,444.21754 197.96402,444.23129 C 198.02402,444.24504 198.06027,444.25629 198.11027,444.27254 L 198.11152,444.27504 C 198.12527,444.29004 198.13777,444.30129 198.14527,444.30504 C 198.23777,444.36004 198.31777,444.29129 198.34902,444.26504 C 198.35527,444.26004 198.36527,444.25004 198.37027,444.24754 C 198.37027,444.24754 198.36527,444.25004 198.35902,444.25254 C 198.40527,444.23379 198.44027,444.19129 198.45027,444.14379 C 198.68652,442.95254 199.80527,439.97379 200.24152,439.08379 C 200.41902,439.43004 200.38527,439.93879 200.54027,440.30254 C 200.90277,441.14879 200.85527,441.95754 201.48152,442.57379 C 201.48527,442.57879 201.49027,442.58254 201.49527,442.58629 C 201.71777,442.75379 201.85027,442.72754 202.01402,442.67504 C 202.05777,442.66004 202.11152,442.66879 202.15652,442.63879 C 202.21527,442.59754 202.24152,442.58129 202.25277,442.57504 C 202.25402,442.57504 202.25402,442.57379 202.25527,442.57129 C 202.53902,442.11504 202.97527,441.57129 203.34277,440.78129 C 203.44402,440.56004 203.54152,440.36629 203.61527,440.15504 C 203.61777,440.15254 203.61652,440.14629 203.61777,440.14129 C 203.67027,440.08879 203.68027,440.02004 203.68152,439.98254 C 203.68152,439.97629 203.68277,439.97004 203.68402,439.96629 C 203.69527,439.95379 203.71152,439.94629 203.71777,439.92754 C 203.72277,439.90879 203.71527,439.89004 203.71402,439.87129 C 203.71902,439.86754 203.72277,439.86254 203.72777,439.85879 C 203.75527,439.83379 203.82902,439.76879 203.80402,439.66879 C 203.80027,439.65754 203.79277,439.65254 203.78902,439.64379 C 203.79902,439.61754 203.80777,439.59879 203.81652,439.57379 C 203.81152,439.66629 203.80902,439.76254 203.80777,439.85879 C 203.80777,439.91879 203.80777,439.98129 203.80527,440.04004 C 203.81027,440.24379 203.80277,440.41129 203.78152,440.53129 C 203.78027,440.54629 203.78027,440.56129 203.78277,440.57629 C 203.81402,440.78754 203.82152,441.00004 203.83027,441.22754 C 203.83652,441.40379 203.84402,441.58379 203.86402,441.76629 C 203.88777,442.09879 204.26902,442.91754 204.58027,443.27504 C 204.60527,443.30504 204.64027,443.32254 204.67777,443.32504 C 204.70527,443.32629 204.73402,443.33004 204.76652,443.33379 C 204.85652,443.34629 204.95152,443.35629 205.04277,443.33629 C 205.15402,443.31879 205.21527,443.26379 205.24527,443.21754 C 205.29652,443.13879 205.30277,443.03379 205.26527,442.90379"
       style="fill:#182006;fill-opacity:1;fill-rule:nonzero;stroke:none"
       id="path223" />
    <path
       d="M 222.95527,442.57504 C 222.95152,442.58629 222.97527,442.56629 222.95527,442.57504"
       style="fill:#182006;fill-opacity:1;fill-rule:nonzero;stroke:none"
       id="path225" />
    <path
       d="M 225.75402,443.33629 C 225.75152,443.33629 225.74652,443.33629 225.74402,443.33629 C 225.74277,443.33754 225.74152,443.33754 225.73777,443.33879 C 225.74402,443.33754 225.75027,443.33754 225.75402,443.33629"
       style="fill:#182006;fill-opacity:1;fill-rule:nonzero;stroke:none"
       id="path227" />
    <path
       d="M 225.96652,442.90379 C 225.96527,442.90004 225.96277,442.89504 225.96152,442.88879 L 225.95277,442.86879 C 225.92527,442.80754 225.89152,442.72629 225.84027,442.66004 C 225.79027,442.59254 225.73527,442.55879 225.68277,442.54379 C 225.55277,441.73254 225.24902,440.57629 225.27402,439.98879 C 225.28777,439.66879 225.30777,439.34629 225.32777,439.03629 C 225.35652,438.59629 225.38527,438.14379 225.39277,437.69129 C 225.39277,437.65629 225.37902,437.61879 225.35402,437.59254 L 225.31652,437.55254 C 225.27777,437.51004 225.24777,437.47629 225.20777,437.44254 C 225.20277,437.43629 225.19652,437.43254 225.19027,437.42879 C 225.17152,437.41629 225.15402,437.40379 225.13277,437.39379 C 225.10277,437.37629 225.06902,437.35629 225.03152,437.33004 C 224.99652,437.30629 224.95277,437.29629 224.91152,437.30879 C 224.83652,437.33004 224.78027,437.37879 224.73402,437.44504 C 224.65652,437.48004 224.58652,437.53129 224.57902,437.53754 C 224.57152,437.54129 224.56527,437.54879 224.55902,437.55379 L 224.56277,437.66379 C 224.55152,437.67129 224.54152,437.67879 224.53152,437.69004 C 224.51402,437.70754 224.50402,437.73254 224.49777,437.75754 C 224.48902,437.76379 224.47527,437.77379 224.44902,437.78879 C 224.42277,437.80504 224.40027,437.82754 224.38902,437.85879 C 224.33652,437.97504 224.33402,438.09754 224.36902,438.22004 C 224.36402,438.23754 224.35902,438.25504 224.35527,438.27129 C 224.35152,438.27379 224.34652,438.27129 224.34402,438.27504 C 224.32652,438.28629 224.24777,438.34879 224.29402,438.47254 C 224.29277,438.47379 224.29152,438.47504 224.29152,438.47754 C 224.28027,438.51879 224.22902,438.63379 224.19152,438.71754 C 224.12902,438.85754 224.09152,438.94879 224.09152,439.01754 C 223.94027,439.29254 223.83902,439.53754 223.74527,439.77379 C 223.65402,440.00254 223.55777,440.24004 223.41152,440.51004 C 223.40902,440.51754 223.40652,440.52254 223.40402,440.52879 C 223.31402,440.76379 223.02777,441.15879 222.97152,441.28629 C 222.92902,441.38254 222.95902,441.35504 222.95152,441.38004 C 222.90652,441.46879 222.85402,441.45754 222.82402,441.55129 C 222.78277,441.68004 222.49902,441.67629 222.45527,441.73254 C 222.01027,441.14504 222.14902,440.56879 221.85777,439.88379 C 221.63777,439.36754 221.60527,438.69379 221.29777,438.18379 C 221.38277,437.94379 221.38277,437.64129 221.28652,437.47129 C 221.28402,437.46629 221.28027,437.46254 221.27652,437.45629 C 221.18527,437.33254 221.08277,437.30754 221.01277,437.30754 C 220.92152,437.30754 220.83402,437.35129 220.74402,437.43629 C 220.74027,437.43004 220.73527,437.42629 220.73152,437.42004 C 220.58402,437.23754 220.41652,437.03004 220.14777,436.97879 C 220.13027,436.97504 220.11277,436.97504 220.09527,436.97879 C 219.93277,437.01504 219.86902,437.08004 219.79027,437.16254 C 219.77527,437.17754 219.76027,437.19379 219.74277,437.21004 C 219.71152,437.24129 219.69527,437.28254 219.69902,437.32754 C 219.70027,437.37129 219.72152,437.41129 219.75402,437.43879 C 219.79027,437.46379 219.79652,437.48254 219.81152,437.53129 C 219.83402,437.60004 219.86902,437.70504 220.00277,437.78504 C 220.01902,437.79504 220.03652,437.80129 220.05527,437.80504 C 220.11402,437.81254 220.23527,437.87879 220.39527,438.20004 C 219.88402,439.30379 218.70527,442.46504 218.43027,443.81004 C 218.43402,443.79629 218.43777,443.78629 218.44277,443.77504 C 218.38402,443.89879 218.47527,443.99754 218.51402,444.04129 C 218.52777,444.05379 218.54902,444.07754 218.55277,444.08754 C 218.55277,444.08629 218.55152,444.08129 218.55152,444.07379 C 218.54527,444.14879 218.59402,444.21754 218.66527,444.23129 C 218.72652,444.24504 218.76152,444.25629 218.81152,444.27254 L 218.81277,444.27504 C 218.82777,444.29004 218.83902,444.30129 218.84777,444.30504 C 218.93902,444.36004 219.02027,444.29129 219.05152,444.26504 C 219.05777,444.26004 219.06777,444.25004 219.07277,444.24754 C 219.07277,444.24754 219.06777,444.25004 219.06152,444.25254 C 219.10777,444.23379 219.14277,444.19129 219.15277,444.14379 C 219.38902,442.95254 220.50652,439.97379 220.94402,439.08379 C 221.12152,439.43004 221.08777,439.93879 221.24277,440.30254 C 221.60402,441.14879 221.55777,441.95754 222.18277,442.57379 C 222.18652,442.57879 222.19277,442.58254 222.19652,442.58629 C 222.42027,442.75379 222.55277,442.72754 222.71652,442.67504 C 222.75902,442.66004 222.81402,442.66879 222.85902,442.63879 C 222.91777,442.59754 222.94402,442.58129 222.95527,442.57504 C 222.95527,442.57504 222.95527,442.57379 222.95777,442.57129 C 223.24152,442.11504 223.67777,441.57129 224.04527,440.78129 C 224.14652,440.56004 224.24402,440.36629 224.31777,440.15504 C 224.31902,440.15254 224.31777,440.14629 224.31902,440.14129 C 224.37277,440.08879 224.38152,440.02004 224.38402,439.98254 C 224.38402,439.97629 224.38527,439.97004 224.38527,439.96629 C 224.39777,439.95379 224.41402,439.94629 224.42027,439.92754 C 224.42527,439.90879 224.41777,439.89004 224.41652,439.87129 C 224.42027,439.86754 224.42527,439.86254 224.43027,439.85879 C 224.45777,439.83379 224.53152,439.76879 224.50652,439.66879 C 224.50277,439.65754 224.49402,439.65254 224.49027,439.64379 C 224.50027,439.61754 224.50902,439.59879 224.51777,439.57379 C 224.51277,439.66629 224.51152,439.76254 224.51027,439.85879 C 224.50902,439.91879 224.50902,439.98129 224.50777,440.04004 C 224.51152,440.24379 224.50402,440.41129 224.48402,440.53129 C 224.48277,440.54629 224.48152,440.56129 224.48402,440.57629 C 224.51527,440.78754 224.52402,441.00004 224.53277,441.22754 C 224.53902,441.40379 224.54527,441.58379 224.56527,441.76629 C 224.58902,442.09879 224.97027,442.91754 225.28277,443.27504 C 225.30777,443.30504 225.34277,443.32254 225.37902,443.32504 C 225.40652,443.32629 225.43652,443.33004 225.46777,443.33379 C 225.55902,443.34629 225.65277,443.35629 225.74402,443.33629 C 225.85652,443.31879 225.91652,443.26379 225.94777,443.21754 C 225.99902,443.13879 226.00527,443.03379 225.96652,442.90379"
       style="fill:#182006;fill-opacity:1;fill-rule:nonzero;stroke:none"
       id="path229" />
  </g>
</svg>
